<svg width="10" height="10" viewBox="0 0 10 10" fill="none" xmlns="http://www.w3.org/2000/svg">
<path d="M5 0C2.24 0 0 2.24 0 5C0 7.76 2.24 10 5 10C7.76 10 10 7.76 10 5C10 2.24 7.76 0 5 0ZM5.5 1.65L6.175 1.175C7.085 1.455 7.86 2.055 8.365 2.845L8.17 3.515L7.495 3.745L5.5 2.35V1.65ZM3.825 1.175L4.5 1.65V2.35L2.505 3.745L1.83 3.515L1.635 2.845C2.14 2.06 2.915 1.46 3.825 1.175ZM2.54 7.555L1.97 7.605C1.365 6.905 1 5.995 1 5C1 4.94 1.005 4.885 1.01 4.825L1.51 4.46L2.2 4.7L2.93 6.87L2.54 7.555ZM6.25 8.795C5.855 8.925 5.435 9 5 9C4.565 9 4.145 8.925 3.75 8.795L3.405 8.05L3.725 7.5H6.28L6.6 8.055L6.25 8.795ZM6.135 6.5H3.865L3.19 4.49L5 3.22L6.815 4.49L6.135 6.5ZM8.03 7.605L7.46 7.555L7.065 6.87L7.795 4.7L8.49 4.465L8.99 4.83C8.995 4.885 9 4.94 9 5C9 5.995 8.635 6.905 8.03 7.605Z" fill="#0C1114"/>
</svg>
