<svg width="79" height="79" viewBox="0 0 79 79" fill="none" xmlns="http://www.w3.org/2000/svg">
<path d="M34.7773 48.2821C32.3949 45.4718 30.9614 41.8304 30.9614 37.8541C30.9614 34.7089 31.8675 31.7678 33.4302 29.2793H33.4417L40.2225 28.2885L43.241 22.1907V22.1693C44.4795 21.8566 45.7838 21.6953 47.1219 21.6953H47.1326C48.4698 21.6953 49.7741 21.8566 51.0241 22.1693L51.0134 22.1907L54.0319 28.2885L60.8127 29.2793L60.8234 29.2686C62.1829 31.423 63.0453 33.9115 63.2494 36.5942H63.2387L58.2905 41.4091L59.4763 48.2821C59.3792 48.4014 59.2722 48.5084 59.1751 48.6269C58.7768 49.0795 58.3547 49.5 57.9021 49.8983C56.5657 51.094 55.0235 52.0758 53.3431 52.7744L47.1317 49.5107L40.922 52.7736C39.2309 52.0741 37.6772 51.0932 36.3408 49.8868C35.8981 49.4984 35.4784 49.0787 35.0793 48.6261C34.9822 48.5084 34.8752 48.4006 34.7773 48.2821ZM51.3253 43.2409L53.9233 35.2586L47.121 30.3137L40.3188 35.2586L42.9168 43.2409H51.3253Z" fill="#E6E9ED"/>
<path d="M74.0715 19.5408L73.7859 69.0458L68.6814 68.9668V19.5408C68.6814 17.7526 67.2372 16.3092 65.4473 16.3092H6.31995V11.4548L65.4473 10.9224C70.212 10.9224 74.0715 14.7794 74.0715 19.5408Z" fill="#656D78"/>
<path d="M53.9241 35.2589L51.3254 43.2412H42.9176L40.3188 35.2589L47.1211 30.314L53.9241 35.2589Z" fill="#656D78"/>
<path d="M35.0793 27.0822C35.4784 26.6296 35.8981 26.2091 36.3408 25.8215C38.2706 24.0868 40.6307 22.8162 43.2402 22.1694V22.1908L40.2217 28.2886L33.4409 29.2794H33.4302C33.9149 28.5042 34.4646 27.7603 35.0793 27.0822Z" fill="#656D78"/>
<path d="M57.9012 25.8108C58.3538 26.2091 58.785 26.6403 59.1743 27.0913C59.7873 27.7702 60.3379 28.4919 60.8226 29.2687L60.8119 29.2794L54.031 28.2886L51.0126 22.1908L51.0233 22.1694C53.6212 22.8047 55.9715 24.0761 57.9012 25.8108Z" fill="#656D78"/>
<path d="M58.2897 41.4091L63.2379 36.5942H63.2486C63.2807 37.0032 63.3021 37.4344 63.3021 37.8541C63.3021 41.8296 61.8694 45.471 59.4755 48.2821L58.2897 41.4091Z" fill="#656D78"/>
<path d="M35.9729 41.4091L31.0247 36.5942H31.014C30.9811 37.0032 30.9597 37.4344 30.9597 37.8541C30.9597 41.8296 32.3924 45.471 34.7871 48.2821L35.9729 41.4091Z" fill="#656D78"/>
<path d="M47.1317 49.5107L53.3423 52.7736C51.4232 53.571 49.3306 54.0129 47.1317 54.0129H47.121C44.9214 54.0129 42.8312 53.571 40.922 52.7736L47.1317 49.5107Z" fill="#656D78"/>
<path d="M74.0716 20.619C73.4758 20.619 72.9936 20.1368 72.9936 19.5418C72.9936 15.3836 69.6073 12.0014 65.4474 12.0014C64.8516 12.0014 64.3694 11.5184 64.3694 10.9242C64.3694 10.3292 64.8516 9.84619 65.4474 9.84619C70.798 9.84619 75.1496 14.197 75.1496 19.5418C75.1496 20.1368 74.6682 20.619 74.0716 20.619Z" fill="#656D78"/>
<path d="M68.6815 20.6189C68.0857 20.6189 67.6034 20.1367 67.6034 19.5417C67.6034 18.3534 66.6365 17.3873 65.4474 17.3873C64.8516 17.3873 64.3694 16.9051 64.3694 16.3101C64.3694 15.7151 64.8516 15.2329 65.4474 15.2329C67.8256 15.2329 69.7595 17.1651 69.7595 19.5417C69.7595 20.1367 69.2781 20.6189 68.6815 20.6189Z" fill="black"/>
<path d="M74.0715 69.0948C73.4758 69.0948 72.9935 68.6134 72.9935 68.0176V19.542C72.9935 18.9479 73.4758 18.4648 74.0715 18.4648C74.6682 18.4648 75.1496 18.9479 75.1496 19.542V68.0176C75.1496 68.6134 74.6682 69.0948 74.0715 69.0948Z" fill="#656D78"/>
<path d="M68.6814 69.0948C68.0856 69.0948 67.6034 68.6134 67.6034 68.0176V19.542C67.6034 18.9479 68.0856 18.4648 68.6814 18.4648C69.278 18.4648 69.7594 18.9479 69.7594 19.542V68.0176C69.7594 68.6134 69.278 69.0948 68.6814 69.0948Z" fill="black"/>
<path d="M65.4474 17.3873H7.23342C6.63762 17.3873 6.1554 16.9051 6.1554 16.3101C6.1554 15.7151 6.63762 15.2329 7.23342 15.2329H65.4474C66.0432 15.2329 66.5254 15.7151 66.5254 16.3101C66.5254 16.9051 66.0432 17.3873 65.4474 17.3873Z" fill="black"/>
<path d="M65.4474 12.0014H7.23342C6.63762 12.0014 6.1554 11.5184 6.1554 10.9242C6.1554 10.3292 6.63762 9.84619 7.23342 9.84619H65.4474C66.0432 9.84619 66.5254 10.3292 66.5254 10.9242C66.5254 11.5184 66.0432 12.0014 65.4474 12.0014Z" fill="#656D78"/>
<path d="M57.9013 69.0948C57.3046 69.0948 56.8232 68.6134 56.8232 68.0176V49.9019C56.8232 49.3061 57.3046 48.8247 57.9013 48.8247C58.4971 48.8247 58.9793 49.3061 58.9793 49.9019V68.0176C58.9793 68.6134 58.4971 69.0948 57.9013 69.0948Z" fill="black"/>
<path d="M57.9013 26.8823C57.3046 26.8823 56.8232 26.4 56.8232 25.8051V16.3111C56.8232 15.7169 57.3046 15.2339 57.9013 15.2339C58.4971 15.2339 58.9793 15.7169 58.9793 16.3111V25.8051C58.9793 26.4009 58.4971 26.8823 57.9013 26.8823Z" fill="black"/>
<path d="M47.121 69.0945C46.5244 69.0945 46.043 68.6131 46.043 68.0173V54.0113C46.043 53.4155 46.5244 52.9341 47.121 52.9341C47.7168 52.9341 48.199 53.4155 48.199 54.0113V68.0173C48.199 68.6131 47.7168 69.0945 47.121 69.0945Z" fill="black"/>
<path d="M47.121 22.7741C46.5244 22.7741 46.043 22.291 46.043 21.6961V16.3125C46.043 15.7176 46.5244 15.2354 47.121 15.2354C47.7168 15.2354 48.199 15.7176 48.199 16.3125V21.6961C48.199 22.291 47.7168 22.7741 47.121 22.7741Z" fill="black"/>
<path d="M36.3408 69.0947C35.7442 69.0947 35.2628 68.6133 35.2628 68.0175V49.8912C35.2628 49.2954 35.7442 48.814 36.3408 48.814C36.9366 48.814 37.4188 49.2954 37.4188 49.8912V68.0175C37.4188 68.6133 36.9366 69.0947 36.3408 69.0947Z" fill="black"/>
<path d="M36.3408 26.8928C35.7442 26.8928 35.2628 26.4106 35.2628 25.8156V16.3125C35.2628 15.7176 35.7442 15.2354 36.3408 15.2354C36.9366 15.2354 37.4188 15.7176 37.4188 16.3125V25.8156C37.4188 26.4106 36.9366 26.8928 36.3408 26.8928Z" fill="black"/>
<path d="M25.5598 69.0944C24.964 69.0944 24.4818 68.613 24.4818 68.0172V16.3125C24.4818 15.7176 24.964 15.2354 25.5598 15.2354C26.1564 15.2354 26.6379 15.7176 26.6379 16.3125V68.0172C26.6379 68.613 26.1564 69.0944 25.5598 69.0944Z" fill="black"/>
<path d="M14.7796 69.0944C14.1838 69.0944 13.7015 68.613 13.7015 68.0172V16.3125C13.7015 15.7176 14.1838 15.2354 14.7796 15.2354C15.3762 15.2354 15.8576 15.7176 15.8576 16.3125V68.0172C15.8576 68.613 15.3762 69.0944 14.7796 69.0944Z" fill="black"/>
<path d="M35.0727 28.1603H7.23342C6.63762 28.1603 6.1554 27.678 6.1554 27.0831C6.1554 26.4881 6.63762 26.0059 7.23342 26.0059H35.0727C35.6685 26.0059 36.1507 26.4881 36.1507 27.0831C36.1507 27.678 35.6685 28.1603 35.0727 28.1603Z" fill="black"/>
<path d="M68.6815 28.1603H59.1801C58.5835 28.1603 58.1021 27.678 58.1021 27.0831C58.1021 26.4881 58.5835 26.0059 59.1801 26.0059H68.6815C69.2781 26.0059 69.7595 26.4881 69.7595 27.0831C69.7595 27.678 69.2781 28.1603 68.6815 28.1603Z" fill="black"/>
<path d="M30.9565 38.9337H7.23342C6.63762 38.9337 6.1554 38.4515 6.1554 37.8565C6.1554 37.2615 6.63762 36.7793 7.23342 36.7793H30.9565C31.5531 36.7793 32.0345 37.2615 32.0345 37.8565C32.0345 38.4515 31.5531 38.9337 30.9565 38.9337Z" fill="black"/>
<path d="M68.6814 38.9337H63.2979C62.7013 38.9337 62.2198 38.4515 62.2198 37.8565C62.2198 37.2615 62.7013 36.7793 63.2979 36.7793H68.6814C69.278 36.7793 69.7594 37.2615 69.7594 37.8565C69.7594 38.4515 69.278 38.9337 68.6814 38.9337Z" fill="black"/>
<path d="M35.0768 49.7057H7.23342C6.63762 49.7057 6.1554 49.2243 6.1554 48.6285C6.1554 48.0327 6.63762 47.5513 7.23342 47.5513H35.0768C35.6734 47.5513 36.1548 48.0327 36.1548 48.6285C36.1548 49.2243 35.6734 49.7057 35.0768 49.7057Z" fill="black"/>
<path d="M68.6814 49.7057H59.1751C58.5793 49.7057 58.097 49.2243 58.097 48.6285C58.097 48.0327 58.5793 47.5513 59.1751 47.5513H68.6814C69.278 47.5513 69.7594 48.0327 69.7594 48.6285C69.7594 49.2243 69.278 49.7057 68.6814 49.7057Z" fill="black"/>
<path d="M68.6814 60.4786H7.23342C6.63762 60.4786 6.1554 59.9972 6.1554 59.4014C6.1554 58.8056 6.63762 58.3242 7.23342 58.3242H68.6814C69.278 58.3242 69.7594 58.8056 69.7594 59.4014C69.7594 59.9972 69.278 60.4786 68.6814 60.4786Z" fill="black"/>
<path d="M47.1276 55.0887C37.6171 55.0887 29.8784 47.3574 29.8784 37.8535C29.8784 28.3513 37.6171 20.6191 47.1276 20.6191C56.638 20.6191 64.3759 28.3513 64.3759 37.8535C64.3759 47.3574 56.638 55.0887 47.1276 55.0887ZM47.1276 22.7744C38.8046 22.7744 32.0345 29.5379 32.0345 37.8535C32.0345 46.1691 38.8046 52.9343 47.1276 52.9343C55.4497 52.9343 62.2199 46.1691 62.2199 37.8535C62.2199 29.5379 55.4497 22.7744 47.1276 22.7744Z" fill="#656D78"/>
<path d="M60.8119 30.3525C60.76 30.3525 60.7074 30.3492 60.6547 30.3418L53.8772 29.3551C53.5266 29.3041 53.2238 29.0836 53.0666 28.7659L50.049 22.664C49.7848 22.1307 50.0037 21.4848 50.5369 21.2214C51.0743 20.9573 51.7195 21.1762 51.982 21.7102L54.7478 27.3052L60.9658 28.2096C61.555 28.296 61.9631 28.8424 61.8767 29.4317C61.7994 29.9666 61.3377 30.3525 60.8119 30.3525Z" fill="#656D78"/>
<path d="M59.4706 49.3542C58.9546 49.3542 58.4995 48.9839 58.4099 48.4589L57.2281 41.5859C57.1681 41.237 57.2849 40.8807 57.5392 40.6313L62.4808 35.8238C62.9063 35.4066 63.5876 35.4165 64.0049 35.8444C64.4204 36.2707 64.4114 36.9529 63.9835 37.3676L59.4484 41.7809L60.5338 48.0952C60.635 48.6811 60.2417 49.2382 59.6541 49.3378C59.5924 49.3485 59.5315 49.3542 59.4706 49.3542Z" fill="#656D78"/>
<path d="M40.9187 53.8501C40.532 53.8501 40.1567 53.641 39.9625 53.274C39.686 52.7482 39.8893 52.0948 40.4168 51.8183L46.6257 48.5595C46.94 48.3958 47.3153 48.395 47.6288 48.5604L53.8361 51.8191C54.3627 52.0964 54.5668 52.7465 54.2887 53.274C54.013 53.8007 53.3637 54.0064 52.8338 53.7258L47.1277 50.7312L41.4191 53.7275C41.2594 53.8097 41.0874 53.8501 40.9187 53.8501Z" fill="#656D78"/>
<path d="M34.7814 49.3543C34.7213 49.3543 34.6596 49.3485 34.5987 49.3378C34.0112 49.2366 33.617 48.6811 33.719 48.0952L34.8044 41.781L30.2694 37.3677C29.8423 36.9529 29.8332 36.2707 30.2471 35.8445C30.6635 35.4174 31.3457 35.4083 31.772 35.8239L36.7136 40.6314C36.9679 40.8791 37.0839 41.237 37.0238 41.5859L35.8421 48.4589C35.7533 48.984 35.2965 49.3543 34.7814 49.3543Z" fill="#656D78"/>
<path d="M33.4409 30.3526C32.9134 30.3526 32.4534 29.9666 32.3752 29.4301C32.2896 28.8425 32.6978 28.2953 33.2862 28.2089L39.5066 27.3037L42.2733 21.7095C42.535 21.1762 43.1826 20.959 43.7175 21.2207C44.2507 21.4848 44.4696 22.13 44.2055 22.6633L41.1887 28.7644C41.0307 29.0828 40.7278 29.3034 40.3781 29.3536L33.5981 30.3411C33.5438 30.3493 33.4911 30.3526 33.4409 30.3526Z" fill="#656D78"/>
<path d="M51.3228 44.3213H42.9167C42.4493 44.3213 42.0354 44.0217 41.8914 43.5782L39.291 35.5909C39.1469 35.1474 39.3049 34.6602 39.6827 34.3854L46.4882 29.4454C46.8676 29.1705 47.3761 29.1705 47.7555 29.4454L54.5594 34.3854C54.9379 34.6602 55.0951 35.1474 54.9502 35.5909L52.3506 43.5782C52.205 44.0217 51.7894 44.3213 51.3228 44.3213ZM43.6993 42.1669H50.5402L52.6568 35.6683L47.121 31.6483L41.5828 35.6675L43.6993 42.1669Z" fill="#E6E9ED"/>
</svg>
