<svg width="165" height="165" viewBox="0 0 165 165" fill="none" xmlns="http://www.w3.org/2000/svg">
<path d="M40.2445 46.2584L38.182 40.0692C38.182 40.0692 29.9079 40.5539 22.77 46.75C21.034 48.2659 19.1348 49.5412 17.0723 50.5708C16.5051 50.5983 13.0143 50.7667 12.4231 50.8664C11.782 50.9747 9.03372 52.6591 7.65012 54.6631C7.25309 55.2337 11.1461 53.2503 11.1461 53.2503C11.1461 53.2503 6.15309 56.7909 6.11528 56.8683C5.90559 57.2997 8.00247 56.5503 8.00247 56.5503C8.00247 56.5503 6.172 57.6331 5.94512 57.8617C5.41059 58.3945 8.28778 57.7019 8.28778 57.7019C8.28778 57.7019 6.43669 59.0339 7.00731 58.9944C8.63497 58.8826 9.44278 58.5251 11.0154 57.9837C12.1 57.5953 13.1553 57.145 14.1848 56.6311C14.1848 56.6311 12.7032 57.7122 12.4506 59.51C12.1962 61.3095 13.7775 58.7142 14.8448 58.3687C16.4072 57.8634 19.0076 55.0808 19.0076 55.0808C19.0076 55.0808 19.5507 53.8828 21.0615 53.1695C21.1526 53.13 21.2489 53.0905 21.3434 53.0492C21.4018 53.0269 21.4568 53.0011 21.5187 52.9805V52.9753C23.4832 52.1469 26.1576 51.272 29.547 50.2837C37.2986 48.027 40.2445 46.2584 40.2445 46.2584Z" fill="#B56A54"/>
<path d="M12.2944 52.5628C12.0246 52.8429 11.7255 53.087 11.3972 53.2967C11.0913 53.4978 10.7751 53.68 10.4468 53.8415C10.1202 54.0014 9.78506 54.144 9.44303 54.2678C9.08209 54.4053 8.71084 54.5067 8.32928 54.5703H8.31725C8.30006 54.5737 8.29146 54.5651 8.28803 54.5497C8.28631 54.5393 8.28975 54.5307 8.29834 54.5256C8.90162 54.0839 9.53928 53.6972 10.2079 53.362C10.8799 53.0389 11.5708 52.7553 12.2755 52.5112C12.291 52.5061 12.3013 52.5112 12.3082 52.5267C12.3116 52.5353 12.3099 52.5439 12.303 52.5525L12.2944 52.5628Z" fill="black"/>
<path d="M11.9107 54.6168C11.6409 54.8969 11.3418 55.141 11.0135 55.3507C10.7076 55.5518 10.3913 55.734 10.063 55.8955C9.73648 56.0554 9.40133 56.1963 9.0593 56.3218C8.69836 56.4593 8.32711 56.5607 7.94555 56.6243H7.93352C7.91633 56.626 7.90773 56.6191 7.9043 56.6019C7.9043 56.5933 7.90773 56.5847 7.91461 56.5779C8.51961 56.1379 9.15555 55.7494 9.82414 55.4143C10.4979 55.0911 11.1871 54.8093 11.8935 54.5652C11.909 54.5583 11.9193 54.5635 11.9245 54.5807C11.9279 54.5893 11.9262 54.5979 11.9193 54.6047L11.9107 54.6168Z" fill="black"/>
<path d="M38.6789 41.5645L37.5274 40.1328C37.2163 40.1706 36.8021 40.2308 36.3019 40.3202C35.6007 41.5542 34.6863 43.9639 35.6471 47.1883C35.7536 47.5423 35.8533 47.8603 35.9478 48.1611C38.9763 47.0112 40.2447 46.2516 40.2447 46.2516L38.6789 41.5645Z" fill="black" fill-opacity="0.298"/>
<path d="M69.0712 62.889C72.9848 62.5435 79.0004 61.9385 82.7989 61.4779C86.5973 61.019 88.2095 59.4085 92.9275 62.3992L89.9351 71.7285C89.9351 71.7285 73.2186 77.1873 66.7646 82.1167L69.0712 62.889Z" fill="#BF7960"/>
<path d="M83.8784 63.3376C85.0351 64.0544 86.0647 64.6834 87.1647 65.0014C87.7164 65.1681 88.2801 65.242 88.8559 65.2214C89.4523 65.2403 90.0487 65.0839 90.7379 64.9825C90.2911 65.493 89.7033 65.9244 89.002 66.1066C88.2818 66.3214 87.5634 66.318 86.8467 66.098C86.154 65.8883 85.5439 65.5377 85.0162 65.0409C84.5126 64.5631 84.0933 64.0011 83.8784 63.3376Z" fill="black"/>
<path d="M12.1706 55.7648C11.8991 56.045 11.6 56.289 11.2717 56.497C10.9658 56.6981 10.6496 56.8803 10.3213 57.0436C9.99643 57.2034 9.66127 57.3461 9.32096 57.4698C8.96002 57.6073 8.58877 57.707 8.20721 57.7706H8.19518C8.17799 57.774 8.16939 57.7672 8.16596 57.75C8.16424 57.7397 8.16768 57.7328 8.17627 57.7259C8.77955 57.2842 9.41721 56.8975 10.0858 56.5623C10.7596 56.2392 11.4488 55.9556 12.1535 55.7115C12.1706 55.7064 12.181 55.7115 12.1861 55.727C12.1896 55.7373 12.1878 55.7459 12.181 55.7528L12.1706 55.7648Z" fill="black"/>
<path d="M44.1923 62.9957C43.7214 63.788 44.0187 66.3902 46.9114 65.469C49.8057 64.5477 48.5648 61.0913 48.5648 61.0913L45.1892 62.0126C45.1892 62.0126 44.3762 62.6863 44.1923 62.9957Z" fill="#262423"/>
<path d="M44.6685 67.6758C44.6685 67.6758 47.9925 63.3686 48.6422 61.423L52.157 62.0761L44.6685 67.6758Z" fill="#B56A54"/>
<path d="M50.4472 61.832L48.3056 62.2033C48.218 62.382 48.12 62.5677 48.0117 62.7619C48.5239 63.1108 49.1908 63.6367 49.385 64.1231L49.4709 64.0853L51.0453 62.908L50.4472 61.832Z" fill="black" fill-opacity="0.298"/>
<path d="M83.8457 52.4648C87.1629 53.6404 91.0249 54.529 96.0918 56.6672C101.159 58.807 96.1588 56.1704 96.1588 56.1704L98.2609 50.2975C98.2609 50.2975 92.9791 47.7658 88.7785 44.9487L83.8457 52.4648Z" fill="#B56A54"/>
<path d="M85.7896 53.1093C87.5478 53.6662 89.4728 54.2299 91.6402 54.9759C94.2991 52.2689 93.8934 49.335 93.3589 47.7296C92.9877 47.52 92.6078 47.3034 92.2177 47.08L85.7896 53.1093Z" fill="black" fill-opacity="0.298"/>
<path d="M54.9229 101.755L60.0671 98.0238L70.1011 95.1896C70.1011 95.1896 74.8603 111.279 74.7314 115.27C74.6043 119.259 72.791 122.215 66.7444 123.76L64.0064 124.317L61.0966 114.885L61.7394 113.34L54.9229 101.755Z" fill="#B56A54"/>
<path d="M68.9117 117.779C67.8066 118.375 66.9128 118.956 66.3903 119.788C66.1153 120.221 65.9177 120.689 65.7956 121.187C65.7166 121.445 65.6822 121.727 65.6083 122.011C65.5705 122.313 65.5137 122.614 65.4433 122.911C65.2834 122.635 65.1511 122.348 65.0445 122.047C64.9895 121.739 64.8864 121.421 64.8984 121.091C64.8727 120.39 65.0514 119.745 65.433 119.158C65.8197 118.565 66.3456 118.147 67.0091 117.899C67.6295 117.679 68.2895 117.607 68.9117 117.779Z" fill="black"/>
<path d="M70.1011 95.1896L60.9384 97.7746L59.5634 98.3865L58.7591 98.9708L56.0898 103.737L56.1466 103.833C57.2964 102.881 63.1591 98.2954 70.6511 97.0905C70.3159 95.9166 70.1011 95.1896 70.1011 95.1896Z" fill="black" fill-opacity="0.298"/>
<path d="M72.2992 62.6519L70.0889 65.1681L70.3209 79.8548C71.4793 79.2172 72.7392 78.5812 74.0454 77.9642C72.2322 72.9953 72.2992 62.6519 72.2992 62.6519Z" fill="black" fill-opacity="0.298"/>
<path d="M45.4199 82.433L66.7599 82.1133C66.7599 82.1133 69.1111 91.398 71.0826 94.6309C71.1376 94.722 71.1702 94.8217 71.1771 94.9283C71.1857 95.0331 71.1685 95.1362 71.1272 95.2342C71.086 95.3322 71.0241 95.4164 70.9416 95.4834C70.8608 95.5522 70.768 95.5986 70.6632 95.6227C67.5608 96.3445 58.1627 98.9209 55.9369 104.014C55.8871 104.13 55.8115 104.228 55.7101 104.306C55.6069 104.383 55.4935 104.43 55.3663 104.445C55.2391 104.462 55.1171 104.445 54.9985 104.395C54.8799 104.344 54.7836 104.268 54.7063 104.167C53.938 103.111 52.7779 101.104 51.7415 97.6198C50.0038 91.7658 45.1036 89.7084 45.4199 82.433Z" fill="black"/>
<path d="M66.3866 94.4573L65.9604 93.0033C64.8449 88.9969 62.4902 85.4391 61.3851 82.2439L60.8179 82.2525C61.9316 85.4494 64.3087 89.0794 65.4413 93.1459L65.8676 94.6034C66.0944 95.4164 66.3454 96.1469 66.5998 96.8138C66.7716 96.7519 66.9401 96.6934 67.1102 96.6333C66.8558 95.9784 66.6101 95.2583 66.3866 94.4573Z" fill="#E2E2E2"/>
<path d="M68.1209 94.4574L67.6929 93.0033C66.5792 88.9866 64.3723 85.3652 63.2637 82.1683L62.6982 82.1769C63.8171 85.379 66.0395 89.0691 67.1739 93.146L67.6018 94.6035C67.7703 95.2068 68.1054 95.7172 68.2911 96.2397C68.4646 96.183 68.6365 96.128 68.805 96.0799C68.6193 95.5591 68.2876 95.0538 68.1209 94.4574Z" fill="#E2E2E2"/>
<path d="M68.6399 37.4069C71.1475 39.9128 76.9603 37.4069 82.3968 40.8478C87.8314 44.2905 90.9389 46.1759 92.8244 46.5094L88.8318 54.835C88.8318 54.835 82.2696 51.2222 77.2869 53.5116C77.2869 53.5116 72.1685 58.6283 71.7646 64.2933C71.3607 69.96 58.4941 67.4781 54.2488 65.0495C50.0017 62.6209 46.4508 60.9572 44.0239 63.5886C44.0239 63.5886 43.6888 62.6416 47.3721 59.7885C51.7652 56.3905 51.2152 47.2433 51.2152 47.2433C51.2152 47.2433 47.1572 46.8411 39.8456 48.9294C39.8456 48.9294 35.3649 44.5706 36.3944 37.828C36.3944 37.828 41.8841 37.0649 46.578 35.1845C51.2719 33.3042 61.1014 29.8736 68.6399 37.4069Z" fill="black"/>
<path d="M36.3069 41.1211C39.5244 40.4267 45.3441 39.0758 47.685 37.9053C51.1225 36.1866 56.4369 34.2031 62.8736 36.8311C66.2269 38.2009 66.9866 39.2374 67.4884 39.9231C68.0453 40.6811 68.4011 41.0455 70.4086 41.0455C70.8194 41.0455 71.225 41.042 71.6238 41.0369C75.1661 41.0025 78.2272 40.9699 82.2852 43.835L82.83 44.2217C85.9203 46.4097 88.3919 48.1542 91.728 48.7988L91.9669 48.302C88.7047 47.7142 86.3191 46.0316 83.1411 43.7817L82.5945 43.3967C78.3939 40.4284 75.1077 40.4645 71.6152 40.4972C71.2181 40.5024 70.8159 40.5058 70.4052 40.5058C68.5816 40.5058 68.3736 40.2239 67.9198 39.6052C67.3802 38.8695 66.5672 37.7592 63.073 36.3327C55.6669 33.3077 49.4725 36.4049 47.4392 37.4224C45.2031 38.5447 39.4745 39.8802 36.2656 40.5745C36.2759 40.7602 36.2897 40.9406 36.3069 41.1211Z" fill="#E4E5E6"/>
<path d="M91.2414 49.8093C88.3385 49.1149 86.0766 47.5182 83.141 45.4403L82.5927 45.0535C78.3921 42.0853 75.1024 42.1214 71.6133 42.154C71.2163 42.1592 70.8141 42.1626 70.4033 42.1626C68.5797 42.1626 68.3735 41.879 67.918 41.2603C67.3783 40.5264 66.5653 39.416 63.0711 37.9895C55.665 34.9645 49.4724 38.0617 47.4374 39.0809C45.2425 40.1792 39.6996 41.4837 36.458 42.1901C36.4924 42.3706 36.5285 42.5476 36.568 42.7212C39.8302 42.0114 45.4041 40.7017 47.6797 39.5621C51.1172 37.8434 56.4316 35.8599 62.8683 38.4879C66.2216 39.8578 66.9813 40.8942 67.4832 41.5799C68.04 42.3379 68.3958 42.7023 70.4033 42.7023C70.8141 42.7023 71.2197 42.6971 71.6185 42.6937C75.1574 42.661 78.2219 42.6249 82.2799 45.4935L82.8282 45.8803C85.6916 47.9084 88.0239 49.5532 91.0043 50.2974L91.2414 49.8093Z" fill="#E4E5E6"/>
<path d="M67.272 40.3356C67.2273 41.3479 67.052 43.9192 69.8123 45.1189C71.8473 46.0057 74.269 45.4368 74.5612 43.6476C75.1971 39.7254 77.4779 39.7151 77.4779 39.7151L77.38 39.0396C73.7689 38.4828 70.5101 39.1101 68.7467 37.4996C67.8976 38.4106 67.3167 39.3593 67.272 40.3356Z" fill="#E2E2E2"/>
<path d="M75.8224 32.4019C74.4698 34.2375 68.2015 36.9806 68.0657 40.0555C68.0262 40.932 67.8749 43.1423 70.2554 44.1805C72.0102 44.947 74.1002 44.4555 74.3494 42.912C74.896 39.5295 76.8657 39.5209 76.8657 39.5209L75.8224 32.4019Z" fill="#B56A54"/>
<path d="M76.8678 39.5209L76.7646 38.8093L72.5692 36.2312C72.5692 36.2312 71.464 40.59 74.4426 42.4599C75.082 39.5346 76.8678 39.5209 76.8678 39.5209Z" fill="black" fill-opacity="0.298"/>
<path d="M72.1738 35.3994C71.3041 33.0172 71.3488 31.0579 73.6777 29.3494C77.7219 26.3829 81.8091 31.4944 80.5871 34.1189C79.9116 35.5713 81.5667 35.5696 79.1055 39.3491C78.8666 39.7169 78.4455 40.2824 76.6391 39.6258C76.6442 39.6241 73.0727 37.8504 72.1738 35.3994Z" fill="#BF7960"/>
<path d="M79.9908 27.4382C78.2978 26.8951 74.0319 25.4427 73.1398 28.8544C73.1398 28.8544 69.9223 29.2893 70.9123 31.7488C72.1842 34.9113 71.8164 34.2101 71.8164 34.2101L71.9814 35.0952L73.8119 34.9422L74.9428 33.0413C74.9531 32.6477 75.0563 32.2782 75.2556 31.9379C75.7163 33.1186 76.8369 32.7233 76.8369 32.7233C75.9259 32.5652 75.883 31.8176 76.0205 31.1919C76.7973 30.7571 78.1311 30.6196 80.4308 31.4188L80.8175 33.4727L84.4423 28.2615C84.4423 28.2615 80.5734 27.6221 79.9908 27.4382Z" fill="black"/>
<path d="M73.4213 34.2427C72.9659 33.5844 71.5582 32.756 71.1835 33.8886C70.6559 35.4974 73.0329 36.8105 73.3749 36.0645L73.4213 34.2427Z" fill="#BF7960"/>
<path d="M72.7394 35.7982C72.6775 35.6882 71.1307 34.4936 72.0571 34.0691C72.3218 33.9471 72.9886 34.4954 72.9886 34.4954L72.7394 35.7982Z" fill="#BF7960"/>
<path d="M72.7308 35.8067C72.4851 35.6726 72.2582 35.5111 72.0502 35.322C71.9385 35.2258 71.8422 35.1175 71.7615 34.9937C71.6635 34.858 71.5982 34.7084 71.5672 34.5434C71.5518 34.4386 71.5655 34.3389 71.6051 34.2426C71.6463 34.1464 71.7082 34.0691 71.7941 34.0072C71.8697 33.9487 71.9557 33.9075 72.0485 33.8817C72.1499 33.8611 72.2479 33.8731 72.3441 33.9144C72.6157 34.045 72.834 34.2375 72.9972 34.4901C73.0041 34.4936 73.0041 34.4987 72.9972 34.5039C72.9938 34.509 72.9886 34.509 72.9852 34.5039C72.7755 34.3286 72.5435 34.1928 72.2891 34.0931C72.0399 33.9883 71.7426 34.2598 71.7924 34.5142C71.8405 34.7686 72.009 35.0023 72.1808 35.2069C72.351 35.4114 72.5607 35.5901 72.7532 35.793C72.7583 35.7964 72.7583 35.8015 72.7532 35.8067C72.7497 35.8101 72.7463 35.8101 72.7411 35.8067H72.7308Z" fill="black"/>
<path d="M72.7445 35.8394C72.6276 35.7672 72.5262 35.6761 72.4437 35.5678C72.3595 35.451 72.2976 35.3255 72.2598 35.188C72.2461 35.1038 72.2461 35.0195 72.2598 34.9353C72.2719 34.8236 72.3251 34.7342 72.4179 34.6706C72.6122 34.5572 72.7686 34.6294 72.8872 34.7067C72.8906 34.7119 72.8906 34.717 72.8872 34.7222C72.8837 34.7256 72.882 34.7274 72.8768 34.7274C72.7565 34.7274 72.619 34.7205 72.5297 34.8013C72.4403 34.882 72.4506 35.0213 72.4764 35.1381C72.5039 35.2602 72.5434 35.377 72.5984 35.4888C72.6465 35.6056 72.7101 35.7088 72.7565 35.8325C72.7583 35.8377 72.7565 35.8411 72.7514 35.8428C72.7497 35.8445 72.7479 35.8445 72.7445 35.8428V35.8394Z" fill="black"/>
<path d="M41.2502 72.0156C43.0686 64.6456 49.7632 62.9286 54.971 61.667C59.3418 60.6066 61.4008 63.788 71.361 61.8612C71.4779 61.8389 71.593 61.8423 71.7082 61.8733C71.8233 61.9025 71.9265 61.9558 72.0176 62.0331C72.1087 62.1105 72.1774 62.2016 72.2272 62.3098C72.2771 62.4181 72.2994 62.5333 72.2977 62.6519L71.9162 82.1184C71.9127 82.3161 71.8749 82.5051 71.8027 82.6891C71.7305 82.873 71.6274 83.038 71.4968 83.1841C71.3644 83.3301 71.2097 83.4487 71.0344 83.5398C70.8591 83.6309 70.6735 83.6876 70.4776 83.71C68.1985 83.9833 63.6129 84.6931 60.1599 86.2726C55.3783 88.4589 44.9369 87.1647 42.1388 80.5492C40.4029 76.4345 40.518 74.9839 41.2502 72.0156Z" fill="#1E1E1E"/>
<path d="M92.6062 61.3696C92.6062 61.3696 88.1856 61.7993 87.0443 66.0807C85.9031 70.3621 88.6359 72.1514 88.6359 72.1514C88.6359 72.1514 96.011 75.7917 106.16 74.2156C120.252 72.0276 121.754 76.1561 121.754 76.1561L128.396 68.487C128.396 68.487 122.275 68.0779 114.003 66.3661C105.731 64.6542 103.591 60.9417 92.6062 61.3696Z" fill="#F2E8DF"/>
<path d="M117.573 75.1678C117 73.4216 119.64 72.7169 122.009 72.7169C124.379 72.7169 124.542 68.1519 127.982 67.7927C128.935 67.6947 131.111 68.4922 132.962 68.3513C141.653 67.6689 143.679 69.0766 144.121 69.3516C144.734 69.7349 120.938 79.9184 120.938 79.9184C120.938 79.9184 119.255 80.2966 117.573 75.1678Z" fill="#9B291E"/>
<path d="M120.558 79.6881C120.93 77.2458 123.255 76.0066 129.164 75.1266C131.631 74.7588 134.592 72.4522 137.089 71.237C140.577 69.5406 143.334 68.9184 144.121 69.3481C144.951 69.8002 141.092 76.8144 132.371 76.0684C129.472 75.8209 129.984 76.7611 126.148 78.8373C122.312 80.9136 120.442 80.4495 120.558 79.6881Z" fill="black"/>
<path d="M127.92 67.7858C128.164 67.2134 128.367 66.727 128.504 66.1856C128.635 65.67 128.685 65.1475 128.654 64.6164C128.607 64.1162 128.466 63.6419 128.2 63.2947C127.932 62.9475 127.571 62.7292 127.285 62.7619C127.139 62.7722 127.005 62.8203 126.888 62.9079C126.808 62.9715 126.77 63.0437 126.747 63.2036C126.706 63.5284 126.856 64.0251 127.043 64.4909C127.134 64.7298 127.26 64.9584 127.377 65.2076C127.5 65.4672 127.609 65.7319 127.703 66.0034C127.796 66.2819 127.872 66.5655 127.928 66.8542C127.961 67.0003 127.97 67.155 127.988 67.3062L128.011 67.5365C128.011 67.5761 128.011 67.6173 128.011 67.6586V67.7737C128.006 67.784 128.025 67.7737 127.995 67.8201C127.94 67.8442 127.945 67.8167 127.939 67.8201C127.928 67.803 127.939 67.8356 127.92 67.7858ZM127.999 67.7858C127.982 67.7394 127.994 67.772 127.987 67.76C127.982 67.7651 127.987 67.7411 127.94 67.76C127.918 67.7995 127.933 67.784 127.928 67.7892V67.7823L127.92 67.76L127.897 67.7119L127.853 67.6173L127.756 67.4283L127.555 67.0519L127.15 66.3025C126.878 65.804 126.584 65.3159 126.354 64.79C126.124 64.264 125.94 63.6969 126.015 63.1004C126.05 62.7825 126.196 62.5264 126.448 62.3322C126.699 62.1517 126.98 62.064 127.287 62.0675C127.899 62.0709 128.42 62.48 128.721 62.9681C129.025 63.4786 129.167 64.0303 129.147 64.625C129.13 65.7731 128.614 66.8886 127.995 67.7823L127.999 67.7858Z" fill="black"/>
<path d="M129.772 68.0212C129.332 67.8613 129.026 67.8665 128.724 67.8613C128.578 67.8803 128.406 67.8579 128.301 67.8923C128.207 67.9026 128.176 67.9353 128.193 67.9335C128.198 67.9146 128.179 67.9181 128.138 68.0023C128.083 68.0813 128.073 68.2257 128.031 68.3787C127.978 68.6984 127.951 69.0903 127.841 69.5423L127.834 69.5663C127.829 69.587 127.815 69.5956 127.792 69.5904C127.782 69.5887 127.774 69.5818 127.768 69.5698C127.615 69.2123 127.505 68.8393 127.438 68.456C127.385 68.0848 127.385 67.6138 127.732 67.3251C127.911 67.2013 128.109 67.1481 128.325 67.1653C128.525 67.1773 128.717 67.2151 128.906 67.2787C129.298 67.399 129.609 67.631 129.836 67.9748C129.848 67.9937 129.845 68.0092 129.826 68.0212C129.815 68.0263 129.805 68.0263 129.795 68.0212H129.772Z" fill="black"/>
<path d="M131.447 68.2997C131.108 68.1811 130.759 68.1278 130.4 68.1399C130.254 68.1588 130.082 68.1399 129.977 68.1725C129.882 68.1828 129.851 68.2155 129.869 68.212C129.876 68.1931 129.855 68.1966 129.814 68.2808C129.759 68.3599 129.75 68.5042 129.707 68.6589C129.654 68.9769 129.628 69.3688 129.516 69.8208L129.511 69.8449C129.506 69.8672 129.491 69.8758 129.468 69.8689C129.458 69.8672 129.449 69.8603 129.446 69.8483C129.291 69.4908 129.181 69.1195 129.114 68.7345C129.061 68.3633 129.061 67.8941 129.408 67.6036C129.589 67.4816 129.786 67.4283 130.001 67.4489C130.2 67.4609 130.393 67.4988 130.582 67.5623C130.974 67.6827 131.285 67.9147 131.512 68.2584C131.52 68.2722 131.519 68.2842 131.508 68.2963C131.5 68.31 131.486 68.3134 131.471 68.3083L131.447 68.2997Z" fill="black"/>
<path d="M132.92 68.3856C132.535 68.3856 132.244 68.4165 131.991 68.42C131.947 68.4182 131.902 68.4234 131.857 68.4354C131.871 68.4561 131.804 68.4629 131.801 68.4698C131.758 68.4801 131.813 68.5025 131.832 68.4543C131.863 68.3598 131.746 68.5282 131.694 68.7826C131.634 69.1006 131.557 69.4151 131.46 69.7245L131.452 69.7503C131.445 69.7709 131.429 69.7778 131.409 69.7709C131.4 69.7675 131.393 69.7623 131.39 69.752C131.268 69.4667 131.177 69.1728 131.118 68.8668C131.07 68.5695 131.048 68.212 131.276 67.937C131.531 67.6775 131.928 67.6981 132.208 67.8201C132.486 67.9422 132.779 68.0814 132.98 68.3443C132.99 68.3581 132.99 68.3701 132.976 68.3804C132.971 68.3839 132.966 68.3856 132.961 68.3856H132.92Z" fill="black"/>
<path d="M128.105 67.6654C127.698 67.4609 127.278 67.2873 126.845 67.1447C126.448 67.0192 126.043 66.9556 125.625 66.959C125.238 66.9762 124.874 67.0604 124.607 67.2461C124.343 67.4317 124.179 67.6775 124.2 67.8493C124.204 67.937 124.231 68.0161 124.279 68.0883C124.305 68.1209 124.322 68.1364 124.424 68.1587C124.628 68.2034 125.02 68.1226 125.391 68.0092C125.582 67.9542 125.768 67.8717 125.97 67.7961C126.187 67.7187 126.407 67.6551 126.632 67.6053C126.866 67.5589 127.101 67.5279 127.339 67.5159C127.459 67.509 127.586 67.5159 127.711 67.5159L127.906 67.5348L128.007 67.5537L128.059 67.5658L128.086 67.5709H128.103C128.114 67.5778 128.103 67.5589 128.146 67.5915C128.167 67.6465 128.139 67.6397 128.143 67.6465C128.127 67.6603 128.158 67.65 128.105 67.6654ZM128.105 67.5864C128.057 67.6018 128.091 67.5915 128.078 67.5967C128.078 67.6018 128.059 67.5967 128.078 67.6431C128.117 67.6706 128.103 67.6534 128.109 67.6586H128.103L128.084 67.6637L128.047 67.6775L127.968 67.7084L127.808 67.7737L127.497 67.9095L126.876 68.1862C126.464 68.3701 126.058 68.5747 125.62 68.7208C125.183 68.8668 124.723 68.982 124.247 68.8806C123.994 68.8308 123.796 68.6984 123.657 68.4818C123.528 68.2687 123.475 68.0367 123.497 67.7892C123.542 67.2976 123.904 66.9058 124.314 66.6961C124.742 66.4847 125.192 66.4073 125.666 66.4623C126.594 66.5551 127.45 67.0433 128.112 67.5898L128.105 67.5864Z" fill="black"/>
<path d="M61.2011 113.34C61.2011 113.34 66.5877 116.193 65.4464 124.025C65.4464 124.025 59.766 127.657 45.4763 125.5C38.3297 124.42 34.3594 125.613 32.1749 127.074L29.5864 129.032L29.595 121.753L32.0906 117.1C32.0906 117.1 35.1535 118.575 40.485 117.554C45.8166 116.531 52.6538 110.83 61.2011 113.34Z" fill="#F2E8DF"/>
<path d="M56.595 125.414C56.7102 124.381 56.7446 123.346 56.6947 122.308C56.6844 122.062 56.6603 121.82 56.6397 121.576C56.6277 121.333 56.5985 121.093 56.5521 120.854C56.4953 120.374 56.4146 119.9 56.3046 119.429C56.2066 118.951 56.0828 118.48 55.935 118.014C55.8371 117.526 55.6257 117.076 55.4916 116.581C55.4314 116.332 55.3128 116.103 55.2321 115.859L54.9777 115.115C54.7972 114.617 54.5892 114.125 54.4517 113.559L54.4449 113.534C54.4363 113.499 54.45 113.477 54.4844 113.468C54.5085 113.462 54.5274 113.468 54.5411 113.489C54.8591 113.919 55.1857 114.343 55.495 114.78C55.7632 115.244 56.0708 115.686 56.3028 116.169C56.7996 117.128 57.1742 118.131 57.4235 119.182C57.6452 120.244 57.7036 121.314 57.6022 122.394C57.4956 123.463 57.2207 124.523 56.6947 125.47C56.6758 125.503 56.6517 125.51 56.6208 125.491C56.5985 125.479 56.5899 125.462 56.5916 125.438L56.595 125.414Z" fill="black" fill-opacity="0.298"/>
<path d="M97.4652 61.8011C96.9169 62.7962 96.3978 63.7106 95.9148 64.6095C95.6948 65.0736 95.4319 65.4998 95.2497 65.9639C95.2033 66.079 95.1414 66.1856 95.0864 66.2956L94.9455 66.6359C94.8578 66.8628 94.7444 67.0828 94.6842 67.3165L94.4298 67.9971C94.368 68.2292 94.3198 68.4629 94.2425 68.6932C94.1514 68.9218 94.1376 69.1607 94.0826 69.3979C94.0259 69.6351 93.983 69.8757 93.9537 70.1181C93.7647 71.0995 93.8214 72.0998 93.7664 73.2565V73.2823C93.7664 73.3132 93.7509 73.3304 93.72 73.3339C93.689 73.339 93.6701 73.327 93.6598 73.2978C93.3126 72.2786 93.0015 71.2129 93.0445 70.1129C93.0514 69.0284 93.2198 67.9318 93.6151 66.9161C94.0105 65.8968 94.5312 64.9481 95.1809 64.0698C95.8169 63.1881 96.5559 62.4026 97.3947 61.7117C97.4239 61.6859 97.4514 61.6876 97.4755 61.7186C97.4909 61.7375 97.4927 61.7581 97.4806 61.7787L97.4652 61.8011Z" fill="black" fill-opacity="0.298"/>
<path d="M51.1603 50.5519C51.1208 49.1133 51.0589 47.8242 50.6671 46.6572C50.478 46.0694 50.1978 45.528 49.8283 45.033C49.4708 44.5053 48.9741 44.0773 48.4619 43.5497C49.1718 43.6459 49.9022 43.9055 50.4728 44.4142C51.0899 44.9127 51.5161 45.54 51.7533 46.298C51.9905 47.0267 52.0507 47.7692 51.9372 48.5272C51.8307 49.2525 51.5952 49.9606 51.1603 50.5519Z" fill="#1E1E1E"/>
<path d="M87.6735 48.0786C87.6735 48.0786 89.8134 45.815 89.9285 47.6713C89.9285 47.6713 91.8432 46.5713 91.7951 48.2814C91.7951 48.2814 93.0756 48.0545 93.8628 48.9844C95.5695 50.9988 96.3343 48.8125 98.866 50.0191C101.399 51.2239 101.955 55.7288 101.889 56.21C101.826 56.693 96.4976 58.9102 94.6878 56.4575C92.8762 54.0031 92.352 52.8894 92.352 52.8894C92.352 52.8894 91.3534 54.8367 90.8876 54.6511C90.4235 54.4655 90.5318 52.7639 90.5318 52.7639C90.5318 52.7639 89.9131 53.6611 89.5521 53.6113C89.1912 53.5614 89.009 52.25 89.009 52.25C89.009 52.25 88.3714 53.7573 87.6082 53.5305C86.8451 53.3036 86.8124 52.195 86.8124 52.195C86.8124 52.195 85.5045 54.0873 85.1693 51.6656C84.9992 50.4436 85.7468 48.8177 86.1335 48.1783C86.9139 46.8772 87.8076 47.3997 87.6735 48.0786Z" fill="#BF7960"/>
<path d="M79.5902 32.7095C79.6091 33.153 79.4252 33.5483 79.353 33.9419C79.2722 34.3269 79.2241 34.7394 79.432 34.9731C79.5386 35.1123 79.6744 35.2103 79.8411 35.2653L79.9717 35.3117C79.9803 35.3186 80.147 35.3478 80.2106 35.4716C80.245 35.5266 80.2587 35.5884 80.2536 35.6538C80.2467 35.7191 80.2227 35.7758 80.1797 35.8256C80.135 35.872 80.0817 35.8995 80.0198 35.9133L79.9408 35.9236C79.5248 35.9906 79.1089 36.0336 78.6895 36.0525C78.6809 36.0542 78.6758 36.0525 78.6758 36.0439C78.6758 36.0388 78.6792 36.0336 78.6844 36.0302L79.8995 35.75C79.9528 35.7363 80.0078 35.7345 80.0336 35.6984C80.0662 35.6589 80.068 35.6177 80.0405 35.5747C79.9906 35.5059 79.86 35.5025 79.7689 35.463C79.5609 35.3994 79.3873 35.2825 79.2498 35.1123C78.9817 34.7548 79.0659 34.2822 79.1794 33.8938C79.2877 33.4916 79.5042 33.1169 79.5627 32.7113C79.5644 32.7027 79.5678 32.6992 79.5747 32.6992C79.5833 32.6992 79.5884 32.7009 79.5902 32.7095Z" fill="black"/>
<path d="M77.1169 33.5706C77.153 33.5723 77.1874 33.5912 77.2183 33.6256C77.2492 33.66 77.275 33.7064 77.2974 33.7682C77.318 33.8284 77.3335 33.8989 77.3421 33.9762C77.3506 34.0553 77.3524 34.1361 77.3472 34.2186C77.3403 34.3028 77.3283 34.3836 77.3094 34.4592C77.2905 34.5348 77.2647 34.6018 77.2355 34.6603C77.2063 34.717 77.1736 34.76 77.1375 34.7909C77.1014 34.8201 77.0653 34.8339 77.0292 34.8304C76.9931 34.8287 76.9588 34.8098 76.9278 34.7754C76.8969 34.7411 76.8694 34.6929 76.8488 34.6328C76.8264 34.5726 76.811 34.5022 76.8024 34.4248C76.7938 34.3457 76.7938 34.265 76.7989 34.1807C76.8041 34.0982 76.8178 34.0175 76.8367 33.9418C76.8556 33.8645 76.8797 33.7992 76.9106 33.7407C76.9399 33.684 76.9725 33.6393 77.0086 33.6101C77.0447 33.5809 77.0808 33.5671 77.1169 33.5706Z" fill="black"/>
<path d="M76.7957 34.1791C76.7871 34.3028 76.7991 34.4249 76.8352 34.5435C76.8679 34.6535 76.9538 34.7824 77.0294 34.7721C77.1034 34.7635 77.1498 34.6449 77.1755 34.5435C77.2048 34.4335 77.2237 34.3217 77.2288 34.21C77.2374 34.0966 77.2357 33.9832 77.2219 33.8714C77.2099 33.7666 77.1721 33.6446 77.1085 33.6257C77.0466 33.605 76.9332 33.7219 76.8868 33.8233C76.8335 33.9367 76.8026 34.0553 76.7957 34.1791ZM76.7957 34.1791C76.8009 34.0553 76.8215 33.9333 76.8559 33.813C76.8971 33.703 76.9246 33.5414 77.1171 33.5105C77.3148 33.538 77.368 33.7099 77.4144 33.8285C77.4935 34.0983 77.4746 34.3596 77.3594 34.6157C77.2959 34.7257 77.2202 34.8872 77.0209 34.8872C76.8352 34.8305 76.8301 34.6655 76.8043 34.5521C76.7871 34.4283 76.7837 34.3046 76.7957 34.1791Z" fill="black"/>
<path d="M79.6762 34.3819C79.659 34.6466 79.7381 34.8683 79.8532 34.8769C79.9684 34.8855 80.0767 34.6758 80.0921 34.4111C80.1059 34.1447 80.0285 33.9849 79.9117 33.978C79.7965 33.9694 79.6951 34.1155 79.6762 34.3819Z" fill="black"/>
<path d="M79.6762 34.3819C79.6608 34.5452 79.7226 34.7841 79.8464 34.8219C79.9255 34.8116 79.965 34.5916 79.977 34.4489C79.9908 34.3062 80.0011 34.1052 79.9237 34.0416C79.8825 34.0072 79.7983 34.0536 79.7519 34.1275C79.7072 34.2066 79.6831 34.2908 79.6762 34.3819ZM79.6762 34.3819C79.6797 34.2891 79.6951 34.1997 79.7209 34.112C79.7295 34.0553 79.757 34.0072 79.8034 33.9694C79.8498 33.9333 79.9014 33.9178 79.9598 33.9212C80.087 33.9591 80.1627 34.0433 80.1884 34.1739C80.2159 34.2736 80.2211 34.3733 80.2056 34.4747C80.1936 34.5761 80.1609 34.6706 80.1111 34.76C80.0595 34.8339 79.9719 34.9731 79.8137 34.9198C79.6951 34.8459 79.6986 34.7377 79.6814 34.65C79.6711 34.5606 79.6711 34.4712 79.6762 34.3819Z" fill="black"/>
<path d="M78.6068 38.2044C78.3645 38.3385 78.1118 38.3677 77.8454 38.2938C77.5687 38.213 77.3487 38.0532 77.1837 37.816C77.0582 37.6252 76.9706 37.4189 76.9207 37.1955C76.8657 37.0219 76.8743 36.8552 76.7093 36.6455L76.7007 36.6335C76.6938 36.6249 76.6938 36.618 76.699 36.6094C76.7041 36.6008 76.7127 36.5991 76.7213 36.6008C76.9448 36.6678 77.1115 36.8036 77.2266 37.0064C77.3452 37.1886 77.4346 37.3846 77.5584 37.553C77.6752 37.73 77.8265 37.8693 78.0121 37.9724C78.2012 38.0686 78.4023 38.1305 78.6137 38.158C78.6257 38.1614 78.6326 38.1683 78.6291 38.1821C78.6291 38.1889 78.6257 38.1941 78.6188 38.1975L78.6068 38.2044Z" fill="black"/>
<path d="M79.0421 36.9669C78.9218 36.9153 78.798 36.8827 78.6674 36.8689L77.9249 36.8105C77.686 36.783 77.4333 36.7452 77.2288 36.618C77.2202 36.6128 77.2133 36.6128 77.2047 36.618C77.1893 36.6249 77.1841 36.6352 77.191 36.6524L77.1979 36.6661C77.3216 36.9703 77.6207 37.1577 77.8699 37.2488C78.1053 37.3364 78.346 37.3966 78.5952 37.4275C78.6743 37.4275 78.7533 37.4413 78.786 37.443L78.7808 37.4791C78.7808 37.6149 78.7275 37.7335 78.7293 37.9002V37.9243C78.7293 37.9311 78.731 37.9363 78.7361 37.9414C78.7482 37.9518 78.7585 37.9518 78.7688 37.9414C78.9321 37.7541 79.1246 37.5839 79.2139 37.3261C79.2363 37.2539 79.2294 37.1835 79.1968 37.1147C79.1641 37.046 79.1125 36.9961 79.0421 36.9669Z" fill="black"/>
<path d="M142.143 71.9693C142.316 72.05 142.478 72.1394 142.625 72.2374C142.775 72.3371 142.9 72.4367 143.002 72.5382C143.105 72.6396 143.175 72.7341 143.215 72.8217C143.255 72.9111 143.26 72.9867 143.23 73.0503C143.201 73.1122 143.139 73.1569 143.047 73.1844C142.954 73.2119 142.835 73.2188 142.693 73.2067C142.55 73.1947 142.392 73.1621 142.22 73.1122C142.05 73.0624 141.878 72.9971 141.704 72.9163C141.531 72.8355 141.369 72.7461 141.22 72.6482C141.072 72.5502 140.946 72.4488 140.843 72.3491C140.742 72.2477 140.671 72.1514 140.632 72.0638C140.592 71.9744 140.587 71.8988 140.616 71.8352C140.646 71.7733 140.706 71.7286 140.8 71.7011C140.893 71.6736 141.012 71.6668 141.154 71.6788C141.297 71.6925 141.455 71.7235 141.625 71.7733C141.797 71.8232 141.969 71.8902 142.143 71.9693Z" fill="black"/>
<path d="M139.25 73.6674C139.416 73.7619 139.569 73.8668 139.71 73.9768C139.851 74.0885 139.966 74.2002 140.061 74.3102C140.154 74.4202 140.216 74.5216 140.248 74.6127C140.279 74.7055 140.277 74.7811 140.243 74.8413C140.209 74.9015 140.143 74.941 140.049 74.9599C139.953 74.9788 139.834 74.9771 139.691 74.9513C139.55 74.9255 139.396 74.8808 139.229 74.8155C139.062 74.7502 138.896 74.6694 138.729 74.5749C138.562 74.4786 138.409 74.3755 138.27 74.2638C138.129 74.1521 138.012 74.0421 137.919 73.9321C137.826 73.8221 137.763 73.7207 137.732 73.6279C137.699 73.5368 137.701 73.4594 137.735 73.3993C137.77 73.3391 137.835 73.2996 137.931 73.2807C138.026 73.2618 138.146 73.2652 138.287 73.291C138.43 73.315 138.584 73.3597 138.751 73.425C138.918 73.4904 139.085 73.5711 139.25 73.6674Z" fill="black"/>
<path d="M130.714 75.8828C130.874 75.9893 131.02 76.1028 131.151 76.2231C131.283 76.3434 131.392 76.4603 131.477 76.5771C131.562 76.6923 131.618 76.7971 131.642 76.8917C131.668 76.9845 131.661 77.0601 131.624 77.1185C131.586 77.1752 131.517 77.2096 131.421 77.2234C131.325 77.2354 131.208 77.2234 131.068 77.189C130.929 77.1546 130.778 77.0996 130.616 77.024C130.455 76.9484 130.295 76.8573 130.135 76.7507C129.977 76.6442 129.831 76.5307 129.7 76.4104C129.568 76.2901 129.46 76.1732 129.374 76.0563C129.288 75.9412 129.233 75.8363 129.209 75.7418C129.183 75.649 129.19 75.5734 129.228 75.5149C129.265 75.4582 129.334 75.4221 129.43 75.4101C129.527 75.3981 129.644 75.4084 129.783 75.4428C129.922 75.4788 130.073 75.5338 130.235 75.6095C130.396 75.6851 130.556 75.7762 130.714 75.8828Z" fill="black"/>
<path d="M127.772 77.6514C127.937 77.7459 128.09 77.8491 128.229 77.9608C128.368 78.0725 128.485 78.1825 128.578 78.2925C128.669 78.4025 128.731 78.5039 128.764 78.595C128.795 78.6878 128.793 78.7634 128.759 78.8236C128.724 78.8837 128.659 78.9233 128.564 78.9405C128.468 78.9594 128.35 78.9559 128.209 78.9319C128.068 78.9061 127.913 78.8614 127.748 78.7961C127.581 78.7308 127.416 78.65 127.25 78.5538C127.085 78.4592 126.932 78.3544 126.792 78.2444C126.653 78.1327 126.536 78.0227 126.443 77.9127C126.352 77.8027 126.29 77.7013 126.258 77.6084C126.227 77.5173 126.229 77.4417 126.263 77.3816C126.297 77.3214 126.363 77.2819 126.457 77.263C126.553 77.2441 126.672 77.2475 126.813 77.2733C126.954 77.2991 127.109 77.3438 127.274 77.4091C127.44 77.4744 127.605 77.5552 127.772 77.6514Z" fill="black"/>
<path d="M123.922 79.408C124.087 79.5043 124.24 79.6074 124.379 79.7174C124.518 79.8291 124.635 79.9408 124.728 80.0508C124.819 80.1591 124.881 80.2605 124.914 80.3533C124.945 80.4444 124.943 80.52 124.908 80.5802C124.874 80.6404 124.809 80.6799 124.714 80.6988C124.618 80.7177 124.499 80.7143 124.358 80.6885C124.218 80.6627 124.063 80.618 123.898 80.5527C123.731 80.4874 123.566 80.4066 123.399 80.3104C123.234 80.2158 123.081 80.1127 122.942 80.001C122.803 79.8893 122.686 79.7793 122.593 79.6693C122.502 79.5593 122.439 79.4579 122.408 79.3668C122.377 79.2739 122.379 79.1983 122.413 79.1382C122.447 79.078 122.513 79.0402 122.607 79.0213C122.703 79.0024 122.82 79.0058 122.963 79.0299C123.104 79.0557 123.258 79.1004 123.423 79.1657C123.59 79.2327 123.755 79.3118 123.922 79.408Z" fill="black"/>
<path d="M133.949 75.6628C134.104 75.7728 134.246 75.8914 134.375 76.0152C134.502 76.1389 134.607 76.2592 134.69 76.3778C134.77 76.4964 134.824 76.603 134.846 76.6975C134.868 76.792 134.86 76.8677 134.819 76.9244C134.779 76.9794 134.71 77.0138 134.614 77.0224C134.518 77.0327 134.399 77.0172 134.262 76.9794C134.122 76.9399 133.975 76.8797 133.815 76.7989C133.657 76.7181 133.499 76.6219 133.344 76.5119C133.187 76.4002 133.047 76.2833 132.918 76.1578C132.789 76.0341 132.684 75.9138 132.603 75.7952C132.521 75.6766 132.469 75.57 132.447 75.4755C132.424 75.381 132.433 75.3053 132.472 75.2503C132.514 75.1936 132.581 75.161 132.679 75.1506C132.775 75.1421 132.892 75.1558 133.031 75.1953C133.169 75.2331 133.318 75.2933 133.476 75.3741C133.636 75.4549 133.792 75.5511 133.949 75.6628Z" fill="black"/>
<path d="M33.1029 116.911C34.7151 117.788 33.2765 120.113 31.5492 121.739C29.8218 123.365 32.8296 126.801 30.5695 129.42C29.9439 130.146 27.8109 131.056 26.5631 132.431C20.7004 138.885 18.2598 139.25 17.7476 139.351C17.0395 139.492 27.4001 115.761 27.4001 115.761C27.4001 115.761 28.366 114.33 33.1029 116.911Z" fill="#9B291E"/>
<path d="M27.8336 115.665C29.2343 117.7 28.3904 120.197 24.6882 124.89C23.1431 126.849 22.5656 130.558 21.579 133.155C20.1989 136.78 18.6176 139.126 17.7479 139.351C16.8353 139.59 14.8432 131.835 21.7062 126.4C23.987 124.594 22.9729 124.259 24.3445 120.118C25.7178 115.978 27.397 115.031 27.8336 115.665Z" fill="black"/>
<path d="M30.6193 129.382C30.8342 129.965 31.0181 130.462 31.2896 130.95C31.5474 131.414 31.8706 131.83 32.2556 132.194C32.632 132.528 33.0582 132.775 33.4914 132.846C33.9228 132.916 34.337 132.828 34.5243 132.607C34.624 132.5 34.6859 132.373 34.7134 132.23C34.7254 132.131 34.7065 132.05 34.612 131.919C34.4212 131.653 33.9709 131.395 33.5154 131.184C33.2851 131.072 33.0393 130.991 32.7832 130.891C32.5134 130.787 32.2521 130.668 31.996 130.537C31.7382 130.396 31.489 130.243 31.2501 130.073C31.1263 129.987 31.0112 129.879 30.896 129.783L30.7207 129.632C30.6932 129.606 30.6657 129.573 30.6417 129.542L30.6004 129.496L30.5798 129.47L30.566 129.455C30.566 129.443 30.5574 129.465 30.5454 129.41C30.5695 129.355 30.5849 129.379 30.5867 129.372C30.6021 129.375 30.5729 129.36 30.6193 129.382ZM30.566 129.437C30.6124 129.458 30.5798 129.444 30.5935 129.448C30.5935 129.441 30.6056 129.463 30.6245 129.413C30.6142 129.369 30.6142 129.391 30.6142 129.384H30.621L30.6434 129.394L30.6915 129.415L30.7895 129.453L30.9888 129.523L31.391 129.661L32.2006 129.927C32.7403 130.104 33.2868 130.259 33.8162 130.489C34.3439 130.721 34.8664 131.001 35.2204 131.488C35.4112 131.744 35.4817 132.029 35.4301 132.345C35.3699 132.648 35.2273 132.904 35.0004 133.114C34.5518 133.53 33.8918 133.592 33.3384 133.442C32.766 133.28 32.2848 132.975 31.8929 132.528C31.116 131.679 30.7293 130.512 30.5643 129.437H30.566Z" fill="black"/>
<path d="M29.1105 130.481C29.4405 130.336 29.7326 130.135 29.9853 129.877C30.0815 129.766 30.219 129.666 30.2723 129.564C30.3325 129.494 30.3342 129.449 30.3239 129.463C30.3308 129.48 30.3445 129.463 30.317 129.374C30.305 129.281 30.2105 129.167 30.1348 129.027C29.9526 128.755 29.7069 128.454 29.4783 128.049L29.4662 128.028C29.4559 128.007 29.4594 127.992 29.48 127.982C29.4903 127.976 29.5006 127.976 29.5109 127.982C29.8684 128.136 30.2036 128.332 30.5147 128.566C30.8086 128.8 31.13 129.142 31.0715 129.592C31.0251 129.803 30.9169 129.977 30.7467 130.111C30.5937 130.238 30.427 130.345 30.2465 130.429C29.877 130.609 29.492 130.654 29.0933 130.56C29.0709 130.554 29.0623 130.541 29.0692 130.518C29.0709 130.508 29.0778 130.499 29.0881 130.496L29.1105 130.481Z" fill="black"/>
<path d="M27.6992 131.424C28.1272 131.239 28.3472 131.025 28.5741 130.823C28.6686 130.709 28.8078 130.61 28.8611 130.51C28.923 130.438 28.923 130.393 28.9127 130.407C28.9195 130.424 28.9333 130.407 28.9058 130.319C28.8937 130.225 28.7992 130.111 28.7236 129.97C28.5414 129.699 28.2956 129.398 28.067 128.992L28.055 128.972C28.0447 128.951 28.0481 128.935 28.0687 128.925C28.0791 128.92 28.0894 128.92 28.0997 128.925C28.4572 129.082 28.7906 129.276 29.1034 129.51C29.3973 129.743 29.717 130.085 29.6603 130.536C29.6139 130.747 29.5056 130.921 29.3355 131.055C29.1825 131.182 29.0158 131.288 28.8353 131.373C28.4658 131.555 28.0808 131.598 27.6803 131.503C27.6597 131.498 27.6511 131.484 27.6562 131.462C27.6597 131.452 27.6666 131.443 27.6752 131.44L27.6992 131.424Z" fill="black"/>
<path d="M26.5684 132.373C26.8503 132.112 27.0376 131.888 27.2198 131.713C27.2593 131.67 27.2989 131.632 27.3057 131.608C27.2834 131.603 27.3264 131.553 27.3246 131.546C27.3487 131.508 27.2937 131.531 27.3143 131.577C27.3556 131.668 27.3264 131.465 27.1889 131.244C27.0135 130.972 26.8537 130.689 26.711 130.398L26.699 130.372C26.6904 130.352 26.6956 130.338 26.7162 130.329C26.7248 130.324 26.7334 130.324 26.7437 130.329C27.0273 130.453 27.2954 130.606 27.5464 130.786C27.7853 130.972 28.0465 131.216 28.0654 131.575C28.0585 131.938 27.7543 132.198 27.4673 132.299C27.1803 132.4 26.8726 132.5 26.5443 132.447C26.5289 132.443 26.522 132.435 26.5237 132.418C26.5254 132.412 26.5289 132.407 26.5323 132.404L26.5684 132.373Z" fill="black"/>
<path d="M30.5645 129.599C30.9993 129.468 31.4239 129.307 31.8364 129.114C32.2128 128.935 32.5497 128.702 32.8522 128.416C33.122 128.136 33.33 127.825 33.397 127.509C33.464 127.191 33.4125 126.9 33.2801 126.792C33.2182 126.73 33.1443 126.689 33.0601 126.668C33.0189 126.663 32.9982 126.662 32.9072 126.715C32.7267 126.825 32.4964 127.151 32.3056 127.488C32.2042 127.66 32.1251 127.846 32.0289 128.04C31.924 128.246 31.8071 128.442 31.6782 128.633C31.5407 128.827 31.3895 129.009 31.2245 129.183C31.1437 129.271 31.044 129.353 30.9512 129.436L30.7914 129.556L30.7054 129.611L30.6607 129.638L30.6367 129.652L30.6212 129.663C30.6092 129.663 30.6298 129.671 30.5765 129.678C30.5232 129.65 30.549 129.637 30.5421 129.633C30.5353 129.63 30.5387 129.645 30.5645 129.599ZM30.6143 129.657C30.6384 129.614 30.6212 129.644 30.6264 129.632C30.6315 129.618 30.6418 129.62 30.5954 129.595C30.549 129.602 30.5714 129.606 30.5645 129.606L30.5731 129.589L30.592 129.553L30.6281 129.472L30.6968 129.317L30.8309 129.006L31.0921 128.379C31.2675 127.961 31.4239 127.535 31.6422 127.127C31.8604 126.72 32.1182 126.323 32.5325 126.07C32.7507 125.931 32.9862 125.895 33.2372 125.957C33.4778 126.026 33.6737 126.158 33.8267 126.356C34.1326 126.744 34.1343 127.277 33.9814 127.708C33.8147 128.155 33.5397 128.521 33.1564 128.807C32.4311 129.367 31.472 129.602 30.6143 129.661V129.657Z" fill="black"/>
<path d="M18.5848 135.138C18.6072 135.204 18.5917 135.278 18.5436 135.362C18.4937 135.446 18.413 135.532 18.2995 135.621C18.1878 135.709 18.0503 135.795 17.8922 135.876C17.7323 135.957 17.5622 136.027 17.3817 136.087C17.1995 136.147 17.0208 136.192 16.8455 136.223C16.6702 136.254 16.5103 136.266 16.3659 136.263C16.2216 136.259 16.1064 136.238 16.017 136.201C15.9259 136.163 15.8709 136.111 15.8486 136.046C15.828 135.981 15.8417 135.905 15.8916 135.823C15.9397 135.738 16.0205 135.652 16.1339 135.563C16.2473 135.474 16.3831 135.389 16.5412 135.309C16.7011 135.228 16.8712 135.157 17.0534 135.097C17.2339 135.037 17.4127 134.991 17.588 134.961C17.765 134.931 17.9248 134.917 18.0675 134.92C18.2119 134.925 18.3287 134.946 18.4181 134.984C18.5075 135.02 18.5625 135.073 18.5848 135.138Z" fill="black"/>
<path d="M19.5042 130.982C19.5197 131.05 19.499 131.123 19.444 131.201C19.3873 131.28 19.2996 131.359 19.1793 131.438C19.059 131.515 18.9164 131.589 18.7514 131.655C18.5864 131.722 18.4111 131.777 18.2254 131.82C18.0415 131.864 17.8593 131.893 17.6823 131.909C17.5053 131.923 17.3454 131.923 17.2028 131.907C17.0601 131.89 16.9467 131.859 16.8607 131.814C16.7748 131.77 16.725 131.713 16.7095 131.646C16.6923 131.579 16.7129 131.505 16.7696 131.428C16.8246 131.349 16.914 131.27 17.0326 131.19C17.1529 131.113 17.2956 131.041 17.4606 130.974C17.6256 130.907 17.8009 130.852 17.9865 130.809C18.1721 130.764 18.3526 130.735 18.5296 130.72C18.7084 130.706 18.8682 130.706 19.0092 130.723C19.1518 130.738 19.267 130.769 19.3512 130.814C19.4372 130.859 19.4887 130.915 19.5042 130.982Z" fill="black"/>
<path d="M24.384 124.649C24.396 124.718 24.3703 124.788 24.3101 124.864C24.2482 124.939 24.1537 125.012 24.0299 125.082C23.9045 125.153 23.7567 125.216 23.5865 125.271C23.4164 125.326 23.2376 125.369 23.0503 125.402C22.8612 125.433 22.6773 125.45 22.4985 125.453C22.3215 125.457 22.1599 125.445 22.019 125.419C21.8781 125.393 21.7664 125.354 21.6839 125.304C21.6014 125.252 21.5532 125.192 21.5429 125.125C21.5309 125.056 21.5567 124.984 21.6185 124.91C21.6787 124.835 21.7732 124.762 21.8987 124.692C22.0224 124.621 22.1703 124.558 22.3404 124.503C22.5106 124.448 22.6893 124.405 22.8784 124.372C23.0657 124.341 23.2496 124.324 23.4284 124.321C23.6071 124.317 23.767 124.329 23.9079 124.355C24.0489 124.381 24.1606 124.419 24.2431 124.47C24.3256 124.522 24.3737 124.58 24.384 124.649Z" fill="black"/>
<path d="M25.2655 121.253C25.2809 121.32 25.2603 121.394 25.2036 121.473C25.1469 121.552 25.0592 121.631 24.9389 121.708C24.8186 121.787 24.6759 121.859 24.5092 121.926C24.3442 121.992 24.1672 122.047 23.9816 122.091C23.7959 122.134 23.6138 122.164 23.4367 122.179C23.258 122.193 23.0981 122.193 22.9555 122.176C22.8128 122.16 22.6977 122.128 22.6117 122.083C22.5258 122.038 22.4759 121.981 22.4605 121.914C22.4433 121.847 22.4639 121.773 22.5206 121.694C22.5773 121.615 22.6667 121.536 22.787 121.459C22.9073 121.38 23.05 121.308 23.215 121.241C23.3817 121.175 23.557 121.12 23.7427 121.076C23.9283 121.033 24.1105 121.003 24.2892 120.988C24.4663 120.973 24.6261 120.974 24.7705 120.991C24.9131 121.007 25.0266 121.038 25.1125 121.084C25.1984 121.129 25.2483 121.186 25.2655 121.253Z" fill="black"/>
<path d="M26.8656 117.334C26.8811 117.401 26.8605 117.475 26.8055 117.554C26.7488 117.633 26.6594 117.712 26.5391 117.789C26.4188 117.868 26.2761 117.941 26.1111 118.008C25.9444 118.073 25.7691 118.128 25.5835 118.173C25.3961 118.216 25.2139 118.245 25.0369 118.26C24.8581 118.274 24.6983 118.274 24.5556 118.257C24.413 118.241 24.2995 118.209 24.2136 118.164C24.1277 118.119 24.0761 118.063 24.0606 117.996C24.0452 117.929 24.0658 117.855 24.1225 117.776C24.1775 117.697 24.2669 117.617 24.3872 117.54C24.5075 117.461 24.6502 117.389 24.8169 117.322C24.9819 117.257 25.1572 117.202 25.3445 117.157C25.5302 117.114 25.7124 117.085 25.8894 117.069C26.0681 117.054 26.228 117.055 26.3706 117.073C26.5133 117.088 26.6267 117.119 26.7127 117.165C26.7986 117.21 26.8502 117.267 26.8656 117.334Z" fill="black"/>
<path d="M22.2028 127.065C22.2114 127.134 22.1839 127.205 22.1203 127.279C22.0567 127.351 21.9605 127.421 21.8333 127.488C21.7061 127.555 21.5566 127.614 21.3864 127.664C21.2145 127.713 21.0341 127.751 20.845 127.777C20.6559 127.803 20.472 127.815 20.2933 127.811C20.1145 127.81 19.9547 127.794 19.8138 127.763C19.6745 127.732 19.5628 127.691 19.482 127.638C19.4013 127.584 19.3566 127.523 19.3463 127.456C19.3377 127.387 19.3652 127.315 19.4288 127.242C19.4924 127.169 19.5886 127.1 19.7158 127.033C19.843 126.966 19.9908 126.907 20.1627 126.857C20.3345 126.808 20.515 126.77 20.7041 126.744C20.8931 126.718 21.077 126.706 21.2558 126.708C21.4345 126.711 21.5944 126.727 21.7336 126.758C21.8745 126.787 21.9845 126.83 22.067 126.883C22.1478 126.937 22.1925 126.997 22.2028 127.065Z" fill="black"/>
<path d="M72.2341 65.988C70.8866 66.2922 69.522 66.4693 68.1418 66.5191C65.6977 66.6205 63.2726 66.3696 60.9299 66.1307C58.3518 65.8677 55.9163 65.6185 53.8573 65.8969C50.7549 66.3163 44.8751 68.3943 41.7177 70.5152C41.6112 70.7954 41.5132 71.0824 41.4238 71.3832C44.2546 69.1729 50.6621 66.8714 53.9295 66.428C55.9232 66.1599 58.3295 66.4039 60.8749 66.6669C63.2365 66.9058 65.6805 67.1568 68.1624 67.0588C69.5305 67.0089 70.8815 66.8405 72.2204 66.55L72.2341 65.988Z" fill="#E2E2E2"/>
<path d="M68.1417 64.857C65.6976 64.9567 63.2725 64.7075 60.9298 64.4686C58.3517 64.2039 55.9162 63.9547 53.8572 64.2348C51.1346 64.6026 46.2637 66.2509 42.9809 68.0848C42.7661 68.3959 42.5701 68.7173 42.3896 69.049C45.5229 67.0656 50.9937 65.1647 53.9293 64.7676C55.9231 64.4995 58.3293 64.7436 60.8748 65.0065C63.2364 65.2454 65.6822 65.4964 68.1623 65.3984C69.5425 65.3468 70.9054 65.1732 72.2547 64.8759L72.265 64.3139C70.9072 64.625 69.5322 64.8054 68.1417 64.857Z" fill="#E2E2E2"/>
<path d="M121.237 89.1877C120.936 90.6297 120.341 91.9875 119.639 93.28C118.927 94.5777 118.111 95.8066 117.191 96.9667C115.349 99.2888 113.121 101.289 110.727 103.029C105.913 106.501 100.409 108.89 94.7734 110.512C91.9512 111.334 89.0791 111.927 86.2002 112.446C84.7513 112.64 83.3093 112.879 81.8587 113.037C80.4063 113.18 78.9591 113.364 77.5034 113.422C74.597 113.625 71.6871 113.67 68.7859 113.623C65.8812 113.518 62.9868 113.384 60.1045 113.07H60.0976C60.0615 113.058 60.0443 113.03 60.046 112.991C60.0477 112.951 60.0684 112.927 60.1062 112.918C65.8743 112.992 71.6441 112.81 77.383 112.228C78.0998 112.171 78.8165 112.087 79.5315 111.989L81.6765 111.715C83.1082 111.526 84.521 111.258 85.9441 111.035C88.768 110.478 91.592 109.881 94.3488 109.044C95.7427 108.677 97.0971 108.188 98.467 107.743C99.8127 107.233 101.165 106.74 102.477 106.145C105.112 104.988 107.664 103.635 110.053 102.028C112.44 100.421 114.68 98.5824 116.589 96.4253C117.561 95.358 118.435 94.2185 119.214 93.0033C119.974 91.7881 120.666 90.5042 121.093 89.143C121.11 89.0966 121.141 89.0811 121.189 89.0931C121.234 89.1103 121.249 89.1413 121.237 89.1877Z" fill="black" fill-opacity="0.298"/>
<path d="M113.658 104.583C111.822 106.69 109.593 108.45 107.192 109.887C106.592 110.248 105.992 110.615 105.361 110.921C104.741 111.244 104.119 111.566 103.481 111.856C102.845 112.147 102.202 112.422 101.551 112.678C100.901 112.932 100.253 113.197 99.5932 113.422C98.9332 113.649 98.268 113.862 97.596 114.051C96.9257 114.238 96.2657 114.465 95.5833 114.608C94.2307 114.926 92.8711 115.228 91.4961 115.435C88.7513 115.859 85.979 116.065 83.1929 115.93H83.1808C83.131 115.925 83.1069 115.899 83.1069 115.849C83.1104 115.808 83.131 115.785 83.1722 115.778C85.8776 115.371 88.5657 114.88 91.228 114.266C93.8904 113.645 96.5115 112.882 99.093 111.98C101.681 111.103 104.198 110.048 106.638 108.816C109.081 107.582 111.389 106.131 113.56 104.462C113.599 104.435 113.634 104.44 113.666 104.476C113.69 104.509 113.69 104.541 113.666 104.572L113.658 104.583Z" fill="black" fill-opacity="0.298"/>
<path d="M87.6634 48.259C87.5894 49.0393 87.3729 49.6649 87.2044 50.2871C87.1099 50.5931 87.024 50.8956 86.9552 51.1998C86.8796 51.5315 86.8349 51.8684 86.8212 52.207V52.2224C86.8212 52.2396 86.8126 52.2465 86.7954 52.2465C86.7868 52.2465 86.7799 52.2413 86.7747 52.2328C86.4413 51.5848 86.4997 50.8165 86.6957 50.1393C86.9122 49.457 87.2216 48.8193 87.6221 48.2281C87.6307 48.2143 87.6427 48.2126 87.6565 48.2212C87.6651 48.2264 87.6685 48.2349 87.6668 48.2435L87.6634 48.259Z" fill="black"/>
<path d="M89.9285 47.685C89.8357 48.1629 89.7188 48.5925 89.6002 49.0119C89.4834 49.4313 89.3613 49.8369 89.2823 50.2425C89.1895 50.6396 89.1242 51.04 89.0863 51.4457C89.0674 51.8805 89.0898 52.3136 89.1517 52.7451V52.7571C89.1534 52.7743 89.1465 52.7829 89.131 52.7863C89.119 52.7863 89.1104 52.7829 89.1052 52.7743C88.8663 52.3755 88.7202 51.9458 88.667 51.4852C88.6292 51.028 88.6601 50.5743 88.7598 50.124C88.8663 49.6805 89.0176 49.2508 89.2135 48.8383C89.4026 48.4241 89.626 48.0305 89.8821 47.6541C89.8924 47.6404 89.9027 47.6369 89.9165 47.6472C89.9268 47.6541 89.9302 47.6627 89.9285 47.673V47.685Z" fill="black"/>
<path d="M91.8484 48.3897C91.7281 48.7885 91.637 49.1425 91.5373 49.4897C91.4393 49.8369 91.3551 50.1789 91.2726 50.5244C91.1729 50.8664 91.1008 51.2188 90.9908 51.5746C90.8928 51.9561 90.7639 52.3274 90.604 52.6883L90.5989 52.7003C90.592 52.7158 90.5817 52.721 90.5662 52.7124C90.5559 52.7089 90.5508 52.7003 90.5508 52.69C90.537 52.305 90.5439 51.92 90.5731 51.5367C90.604 51.1517 90.6642 50.7702 90.7553 50.3938C90.855 50.0191 90.989 49.6581 91.1592 49.3092C91.3259 48.9569 91.5442 48.6389 91.8123 48.3553C91.8226 48.3433 91.8347 48.3433 91.8467 48.3553C91.8536 48.3622 91.8553 48.3691 91.8518 48.3794L91.8484 48.3897Z" fill="black"/>
<path d="M91.9428 53.6457C92.0923 53.2572 92.2092 52.9118 92.333 52.5715C92.4567 52.2312 92.565 51.8994 92.6733 51.5608C92.797 51.2257 92.8967 50.8819 93.0308 50.5347C93.1562 50.1618 93.3127 49.8008 93.4966 49.4537L93.5034 49.4416C93.512 49.4279 93.5241 49.4244 93.5378 49.433C93.5464 49.4382 93.5516 49.4451 93.5516 49.4554C93.5378 49.8404 93.5017 50.2237 93.445 50.6052C93.3848 50.9868 93.2972 51.3615 93.1803 51.731C93.0531 52.0971 92.8916 52.4477 92.6973 52.7829C92.5048 53.1215 92.2659 53.424 91.9806 53.6886C91.9686 53.699 91.9583 53.699 91.9463 53.6886C91.9411 53.6801 91.9411 53.6715 91.9463 53.6629L91.9428 53.6457Z" fill="black"/>
<path d="M93.0017 51.8307C93.2785 51.939 93.5002 52.0696 93.6583 52.116C93.6841 52.1229 93.7081 52.1229 93.7339 52.116C93.7305 52.1057 93.7253 52.0988 93.715 52.0954C93.6927 52.0833 93.6686 52.0782 93.6428 52.0799C93.6119 52.0885 93.5964 52.0885 93.5792 52.0936C93.5603 52.0988 93.5431 52.1315 93.5449 52.116C93.5483 52.1005 93.5449 52.1091 93.5569 52.0713C93.5981 51.9957 93.6308 51.9149 93.6566 51.8324C93.7064 51.7465 93.7356 51.6399 93.7872 51.5333C93.8903 51.291 94.0278 51.0693 94.198 50.8665L94.2117 50.8527C94.222 50.8424 94.2324 50.8424 94.2444 50.8527C94.2495 50.8579 94.2513 50.863 94.2513 50.8716C94.2358 51.1105 94.2375 51.3494 94.2031 51.5935C94.1825 51.841 94.1275 52.0799 94.0364 52.3102C93.9797 52.4185 93.8955 52.5422 93.7528 52.5749C93.6085 52.6076 93.4847 52.5165 93.3902 52.4426C93.2131 52.2707 93.0671 52.0765 92.9553 51.8565C92.9502 51.8479 92.9502 51.8393 92.9571 51.8307C92.9656 51.8221 92.9742 51.8204 92.9828 51.8238L93.0017 51.8307Z" fill="black"/>
<path d="M92.4362 53.0681C92.7456 52.9805 93.0601 52.9255 93.3815 52.9014C93.6772 52.8687 93.9573 52.867 94.222 52.8498C94.4644 52.843 94.705 52.8189 94.9439 52.7776C95.2154 52.7261 95.4406 52.592 95.6176 52.3789L95.6279 52.3669C95.6383 52.3566 95.6503 52.3566 95.6623 52.3669C95.6675 52.3737 95.6709 52.3806 95.6692 52.3892C95.6194 52.7261 95.4458 52.977 95.1501 53.1437C94.8683 53.2915 94.5675 53.3723 94.2495 53.3826C93.6256 53.3878 93.0154 53.3001 92.419 53.1197C92.4053 53.1145 92.3984 53.1059 92.4036 53.0905C92.4053 53.0819 92.4104 53.075 92.419 53.0733L92.4362 53.0681Z" fill="black"/>
<path d="M67.5831 49.7939L69.4583 47.8191L68.4202 49.9503L68.9788 52.8121L67.6931 50.5949L65.4106 50.0122L67.5831 49.7939Z" fill="#E2E2E2"/>
<path d="M152.926 42.0957C153.141 42.2469 153.349 42.4119 153.544 42.5872C153.742 42.7643 153.928 42.9516 154.105 43.1527C154.28 43.3521 154.445 43.5618 154.6 43.7835C154.753 44.0035 154.894 44.2355 155.023 44.4744C155.153 44.715 155.27 44.9643 155.373 45.2221C155.478 45.4782 155.569 45.7429 155.647 46.0144C155.724 46.286 155.787 46.5644 155.839 46.848C155.889 47.1316 155.925 47.4186 155.949 47.7108C155.971 48.0047 155.98 48.3004 155.977 48.5994C155.971 48.8968 155.952 49.1975 155.92 49.5C155.887 49.8025 155.841 50.105 155.781 50.4075C155.72 50.71 155.647 51.0125 155.561 51.3116C155.473 51.6124 155.373 51.9097 155.26 52.2054C155.148 52.4993 155.023 52.7914 154.883 53.0768C154.746 53.3638 154.596 53.6457 154.435 53.9207C154.273 54.1974 154.101 54.4655 153.917 54.7285C153.734 54.9914 153.539 55.2458 153.337 55.4916C153.132 55.7374 152.919 55.9746 152.697 56.2014C152.475 56.43 152.245 56.6466 152.006 56.8546C151.767 57.0608 151.522 57.2568 151.271 57.4407C151.018 57.6246 150.76 57.7982 150.495 57.958C150.232 58.1179 149.964 58.2639 149.691 58.398C149.418 58.5321 149.143 58.6524 148.863 58.7589C148.584 58.8655 148.304 58.9583 148.02 59.0374C147.739 59.1147 147.455 59.1783 147.171 59.2282C146.888 59.278 146.606 59.3124 146.324 59.3313C146.042 59.3519 145.764 59.3571 145.485 59.3468C145.209 59.3364 144.935 59.3124 144.665 59.2729C144.396 59.2333 144.131 59.1783 143.87 59.1096C143.61 59.0408 143.356 58.9583 143.108 58.8604C142.861 58.7624 142.62 58.6524 142.388 58.5269C142.154 58.4014 141.929 58.2639 141.714 58.1127C141.498 57.9597 141.292 57.7964 141.094 57.6194C140.896 57.4441 140.711 57.255 140.534 57.0557C140.358 56.8563 140.193 56.6449 140.04 56.4249C139.886 56.2032 139.745 55.9729 139.616 55.7322C139.487 55.4916 139.37 55.2441 139.265 54.9863C139.162 54.7285 139.071 54.4655 138.994 54.1922C138.914 53.9207 138.851 53.6439 138.801 53.3604C138.749 53.0768 138.713 52.7897 138.689 52.4958C138.667 52.2036 138.658 51.908 138.664 51.6089C138.667 51.3099 138.686 51.0091 138.719 50.7083C138.751 50.4058 138.798 50.1033 138.858 49.8008C138.918 49.4983 138.992 49.1958 139.078 48.8968C139.165 48.596 139.265 48.2986 139.379 48.003C139.492 47.7074 139.617 47.4169 139.755 47.1299C139.892 46.8446 140.042 46.5627 140.204 46.286C140.365 46.011 140.539 45.7411 140.721 45.4799C140.905 45.2169 141.099 44.9625 141.302 44.7168C141.506 44.471 141.719 44.2338 141.941 44.0052C142.165 43.7783 142.395 43.56 142.632 43.3538C142.871 43.1475 143.117 42.9516 143.369 42.7677C143.62 42.5821 143.88 42.4102 144.143 42.2504C144.408 42.0905 144.676 41.9444 144.947 41.8104C145.221 41.6763 145.496 41.556 145.776 41.4494C146.054 41.3429 146.334 41.25 146.618 41.171C146.9 41.0936 147.183 41.0283 147.467 40.9802C147.751 40.9304 148.032 40.896 148.314 40.8771C148.596 40.8564 148.876 40.8513 149.153 40.8616C149.43 40.8719 149.703 40.896 149.973 40.9355C150.243 40.975 150.509 41.03 150.769 41.0988C151.028 41.1675 151.283 41.25 151.53 41.348C151.778 41.4443 152.018 41.556 152.252 41.6814C152.484 41.8069 152.709 41.9444 152.926 42.0957Z" fill="#E2E2E2"/>
<path d="M155.078 52.6367L155.11 52.5576L153.565 52.7707L153.197 49.4432L154.789 46.1346L155.683 46.1639C155.248 44.5139 154.325 43.0735 152.926 42.0939C152.816 42.0131 152.699 41.9546 152.587 41.8859L152.326 43.1285L149.189 43.297L145.514 42.4307L145.819 41.4304L145.74 41.4631L145.435 42.4617L142.367 45.1756L140.736 45.4575C140.731 45.4643 140.726 45.4695 140.723 45.4764C140.707 45.4987 140.695 45.521 140.68 45.5434L142.33 45.2564L143.478 48.0425L141.843 52.0953L138.806 53.3482V53.3757C139.153 55.3007 140.131 56.9971 141.714 58.1075C141.976 58.2879 142.247 58.4478 142.532 58.5904L144.17 55.2904L148.036 54.101L150.571 55.7442L149.935 58.2621L150.014 58.2175L150.65 55.7184L153.56 52.8464L155.078 52.6367ZM144.177 55.2165L141.908 52.1296L143.555 48.0493L146.699 47.4907L147.596 47.3704L147.704 47.5165L149.583 50.0792L149.593 50.0946L148.015 54.0357L144.177 55.2165ZM152.53 49.5515L149.641 50.0121L147.658 47.3189L148.99 43.9037L149.203 43.3743L152.36 43.2042L154.737 46.0968L153.127 49.4484L152.53 49.5515Z" fill="black"/>
<path d="M155.505 45.5726C155.224 47.3 154.577 48.8778 153.565 50.3044C150.469 54.7267 145.006 56.2426 141.362 53.6886C140.131 52.8258 139.268 51.6123 138.78 50.2098C138.287 53.3637 139.294 56.4197 141.709 58.1092C145.353 60.6633 150.817 59.1439 153.912 54.725C155.966 51.7962 156.463 48.3244 155.505 45.5726Z" fill="black" fill-opacity="0.298"/>
</svg>
