<svg width="12" height="14" viewBox="0 0 12 14" fill="none" xmlns="http://www.w3.org/2000/svg">
<path fill-rule="evenodd" clip-rule="evenodd" d="M5.78553 0.429625C4.94929 1.29762 5.54179 2.8 6.72021 2.8C7.41317 2.8 8.0687 2.11943 8.0687 1.4C8.0687 0.680575 7.41317 0 6.72021 0C6.39185 0 6.0463 0.158725 5.78553 0.429625ZM3.18934 3.60832C2.41378 4.21365 2.02845 4.67407 1.65542 5.44127L1.15732 6.46572L1.65475 6.73295C1.92849 6.87977 2.21892 7 2.30034 7C2.38192 7 2.62078 6.62585 2.83114 6.16875C3.20265 5.362 4.10834 4.4051 4.30623 4.61037C4.36 4.6662 3.98748 5.79757 3.47876 7.12477L2.55352 9.5375L3.07758 9.8364C3.36599 10.0009 3.64192 10.1386 3.69114 10.1426C3.7402 10.1467 3.92764 9.75625 4.10749 9.275C4.33 8.68 4.53058 8.4 4.73455 8.4C4.89957 8.4 5.03459 8.43167 5.03459 8.47052C5.03459 8.5092 4.69342 9.47398 4.27639 10.6143C3.85937 11.7546 3.51803 12.7764 3.51786 12.8851C3.51753 13.0979 4.48474 13.5791 4.62346 13.4351C4.66965 13.3873 5.39683 11.467 6.23947 9.16772C7.08211 6.86858 7.79479 4.96072 7.82294 4.92817C7.86812 4.87567 9.30224 5.69765 10.8879 6.68465L11.4314 7.0231L11.7729 6.4428C12.1813 5.7484 12.2885 5.86162 9.88193 4.44692C8.53849 3.65732 7.92071 3.40952 6.61368 3.13652C5.72721 2.95155 4.82725 2.8 4.61352 2.8C4.39995 2.8 3.75908 3.16382 3.18934 3.60832ZM0.391541 11.6296C-0.444696 12.4976 0.1478 14 1.32622 14C2.01918 14 2.67472 13.3194 2.67472 12.6C2.67472 11.8806 2.01918 11.2 1.32622 11.2C0.997859 11.2 0.652307 11.3587 0.391541 11.6296Z" fill="black"/>
</svg>
