<svg width="12" height="14" viewBox="0 0 12 14" fill="none" xmlns="http://www.w3.org/2000/svg">
<path fill-rule="evenodd" clip-rule="evenodd" d="M1.1831 0.117728C0.997183 0.200419 0.65493 0.481884 0.422535 0.743207L0 1.2185V7.03157V12.8448L0.552507 13.4224L1.10501 14H6H10.895L11.4475 13.4224L12 12.8448V7.02079V1.19677L11.4477 0.619171L10.8955 0.0415752L6.20822 0.00447053C3.63042 -0.0158487 1.36901 0.0350377 1.1831 0.117728ZM3.29577 2.42688V3.48701H6H8.70423V2.42688V1.36674H9.51549C9.96169 1.36674 10.418 1.46215 10.5296 1.57877C10.6661 1.72153 10.7324 2.529 10.7324 4.05241V6.31403L9.67606 6.3135C8.63391 6.31315 8.61516 6.30431 8.28169 5.66523C7.75132 4.64892 7.15082 4.28211 6.01673 4.28211C5.22135 4.28211 4.93555 4.36869 4.44828 4.75723C4.12056 5.01855 3.756 5.47582 3.63803 5.77319C3.43065 6.29654 3.3889 6.31403 2.34575 6.31403H1.26761V4.05241C1.26761 2.529 1.33386 1.72153 1.47042 1.57877C1.58197 1.46215 2.03831 1.36674 2.48451 1.36674H3.29577V2.42688ZM7.35211 1.72012C7.35211 2.04399 7.23938 2.0735 6 2.0735C4.76062 2.0735 4.64789 2.04399 4.64789 1.72012C4.64789 1.39625 4.76062 1.36674 6 1.36674C7.23938 1.36674 7.35211 1.39625 7.35211 1.72012ZM6.86856 5.95482L7.26761 6.30219H6H4.73239L5.13144 5.95482C5.35082 5.76365 5.74175 5.60728 6 5.60728C6.25825 5.60728 6.64918 5.76365 6.86856 5.95482ZM3.63803 8.26839C4.21927 9.73508 6.30676 10.277 7.55172 9.28435C7.87944 9.02303 8.244 8.56576 8.36197 8.26839C8.56935 7.74504 8.6111 7.72754 9.65425 7.72754H10.7324V9.98916C10.7324 11.5126 10.6661 12.32 10.5296 12.4628C10.418 12.5794 9.96169 12.6748 9.51549 12.6748H8.70423V11.6147V10.5546H6H3.29577V11.6147V12.6748H2.48451C2.03831 12.6748 1.58197 12.5794 1.47042 12.4628C1.33386 12.32 1.26761 11.5126 1.26761 9.98916V7.72754H2.34575C3.3889 7.72754 3.43065 7.74504 3.63803 8.26839ZM6.86856 8.08675C6.64918 8.27793 6.25825 8.4343 6 8.4343C5.74175 8.4343 5.35082 8.27793 5.13144 8.08675L4.73239 7.73938H6H7.26761L6.86856 8.08675ZM7.35211 12.3215C7.35211 12.6453 7.23938 12.6748 6 12.6748C4.76062 12.6748 4.64789 12.6453 4.64789 12.3215C4.64789 11.9976 4.76062 11.9681 6 11.9681C7.23938 11.9681 7.35211 11.9976 7.35211 12.3215Z" fill="black"/>
</svg>
