<svg width="148" height="148" viewBox="0 0 148 148" fill="none" xmlns="http://www.w3.org/2000/svg">
<path d="M119.595 73.5899L116.638 84.8224C116.159 86.6416 114.379 87.8256 112.502 87.5635L86.7621 83.919C85.4963 83.7402 84.28 84.548 83.9531 85.7891L83.9454 85.8184C81.0594 96.7765 70.5129 103.696 59.5516 102.337C58.2351 102.175 56.8907 101.884 55.5633 101.472C46.2609 98.5602 40.031 89.7866 39.8954 80.3331C39.8861 79.5438 39.9108 78.7483 39.9971 77.9512C40.0619 77.1203 40.2068 76.2785 40.3795 75.4429C40.7109 73.8936 41.1919 72.4151 41.8178 71.0353C42.1354 70.3015 42.4962 69.5769 42.8924 68.8955C47.8226 60.3747 58.0053 55.8299 67.9846 58.4569L78.0223 61.1008C78.0655 61.1116 78.0871 61.1486 78.0748 61.1918L77.3348 64.0069C76.8784 65.7397 78.0593 67.5327 79.9032 67.7392C81.4186 67.9073 82.783 66.7695 83.1715 65.2957L83.8514 62.7119C83.8637 62.6687 83.9007 62.6487 83.9439 62.6595L118.531 71.7661C119.325 71.9757 119.805 72.7959 119.595 73.5899Z" fill="#F68714"/>
<path d="M89.7187 64.1811L118.531 71.7661C119.325 71.9757 119.804 72.7959 119.595 73.5899L116.638 84.8225C116.158 86.6416 114.379 87.8256 112.501 87.5635L86.7618 83.919C85.4961 83.7402 84.2797 84.548 83.9529 85.7891L83.9452 85.8184C81.0592 96.7765 70.5126 103.696 59.5514 102.337C51.2433 98.9302 45.8012 90.6885 45.6717 81.8547C45.6625 81.0639 45.6872 80.2684 45.7735 79.4729C45.8382 78.6404 45.9816 77.7986 46.1558 76.9646C46.4873 75.4152 46.9683 73.9367 47.5942 72.557C47.9118 71.8216 48.2725 71.0985 48.6687 70.4156C53.599 61.8948 63.7832 57.3515 73.7609 59.9785L89.7187 64.1811Z" fill="#F79540"/>
<path d="M76.7243 83.9175C74.9499 90.6593 68.8572 95.0915 62.2142 95.0407C60.9793 95.0407 59.7244 94.8788 58.4818 94.552C50.5098 92.4538 45.7384 84.2968 47.8412 76.311C49.9394 68.3421 58.1133 63.5768 66.0853 65.6766C67.3263 66.0034 68.498 66.4813 69.5725 67.0887C75.3754 70.3308 78.4957 77.1897 76.7243 83.9175Z" fill="#CC721B"/>
<path d="M76.7239 83.9175C74.9495 90.6593 68.8568 95.0915 62.2138 95.0407C56.4109 91.8001 53.2906 84.9412 55.062 78.2134C56.8333 71.4855 62.9276 67.0533 69.5721 67.0887C75.375 70.3308 78.4953 77.1897 76.7239 83.9175Z" fill="#E68516"/>
<path d="M83.9452 56.4836L81.0562 55.7236L84.8579 41.2859L87.747 42.0459L83.9452 56.4836Z" fill="#8AACD6"/>
<path d="M73.7905 54.2991L72.8794 40.1635L75.8579 39.9708L76.769 54.1064L73.7905 54.2991Z" fill="#8AACD6"/>
<path d="M90.9707 58.8223L88.4717 57.1881L96.2263 45.3342L98.7238 46.9684L90.9707 58.8223Z" fill="#8AACD6"/>
<path d="M37.4287 68.9387C35.0391 68.3097 32.5848 69.7403 31.9558 72.1284C31.3268 74.518 32.759 76.9723 35.1486 77.6013C36.3264 77.9112 37.5505 77.7339 38.5803 77.1203C38.6528 76.5268 38.7622 75.8808 38.9164 75.1393L38.9179 75.13C39.2217 73.7163 39.6441 72.3504 40.1806 71.06C39.5994 70.024 38.605 69.2485 37.4287 68.9387ZM34.387 80.4888C30.4064 79.4405 28.0199 75.3489 29.0682 71.3683C30.115 67.3878 34.2082 65.0028 38.1887 66.0511C40.4719 66.6524 42.3466 68.3112 43.2069 70.488L43.4397 71.077L43.1791 71.6535C42.5979 72.9316 42.1493 74.3098 41.8409 75.7498C41.6498 76.6717 41.5372 77.4071 41.4848 78.0669L41.4355 78.7205L40.9221 79.1245C39.0598 80.5937 36.6764 81.0916 34.387 80.4888Z" fill="#F68714"/>
<path d="M29.8251 97.8141C29.0281 97.6044 28.5517 96.7889 28.7614 95.9903L34.8432 72.8899C35.0544 72.0914 35.87 71.615 36.6686 71.8262C37.4672 72.0359 37.942 72.8514 37.7323 73.65L31.6489 96.7503C31.4392 97.5489 30.6237 98.0253 29.8251 97.8141Z" fill="#CCCCC9"/>
</svg>
