<svg width="14" height="14" viewBox="0 0 14 14" fill="none" xmlns="http://www.w3.org/2000/svg">
<path fill-rule="evenodd" clip-rule="evenodd" d="M5.33737 0.119105C4.21595 0.400432 2.61995 1.34349 1.84516 2.1827C1.44732 2.61371 0.869241 3.49838 0.560886 4.14827C0.0529873 5.21854 0 5.48979 0 7.02027C0 8.61534 0.0372151 8.78538 0.661899 10.0473C1.45901 11.6577 2.48509 12.6608 4.13266 13.44C5.20322 13.9464 5.47754 14 7 14C8.52246 14 8.79678 13.9464 9.86734 13.44C11.5149 12.6608 12.541 11.6577 13.3381 10.0473C13.9635 8.78396 14 8.61676 14 7.01107C14 5.40539 13.9635 5.23818 13.3381 3.97487C12.1407 1.55564 10.0132 0.136091 7.39856 0.0118828C6.64327 -0.024035 5.71572 0.0242682 5.33737 0.119105ZM8.4023 2.37255C9.436 3.1431 9.53949 4.85654 8.60858 5.78615C7.26954 7.12307 4.99446 6.32103 4.76248 4.43012C4.52377 2.48242 6.81321 1.18815 8.4023 2.37255ZM9.744 8.94002C10.3272 9.14544 10.9978 9.50674 11.2342 9.74277C11.6512 10.1589 11.6549 10.186 11.3586 10.6374C11.1906 10.8934 10.6795 11.3398 10.2228 11.6296C7.9419 13.0766 5.50448 12.9579 3.31428 11.2931C2.45762 10.6418 2.29192 10.2474 2.68835 9.80293C3.81403 8.54067 7.37428 8.10524 9.744 8.94002Z" fill="#0C1114"/>
</svg>
